<svg width="19" height="19" viewBox="0 0 19 19" fill="none" xmlns="http://www.w3.org/2000/svg">
<g clip-path="url(#clip0)">
<path d="M10.5494 9.5008L18.7824 1.2678C19.0722 0.977936 19.0722 0.507983 18.7824 0.218159C18.4925 -0.0716652 18.0226 -0.0717023 17.7327 0.218159L9.49975 8.45116L1.26679 0.218159C0.976927 -0.0717023 0.506975 -0.0717023 0.217151 0.218159C-0.0726722 0.50802 -0.0727093 0.977973 0.217151 1.2678L8.45011 9.50076L0.217151 17.7338C-0.0727093 18.0236 -0.0727093 18.4936 0.217151 18.7834C0.362063 18.9283 0.552026 19.0008 0.741988 19.0008C0.931951 19.0008 1.12188 18.9283 1.26683 18.7834L9.49975 10.5504L17.7327 18.7834C17.8776 18.9283 18.0676 19.0008 18.2575 19.0008C18.4475 19.0008 18.6374 18.9283 18.7824 18.7834C19.0722 18.4935 19.0722 18.0236 18.7824 17.7338L10.5494 9.5008Z" fill="#666666"/>
</g>
<defs>
<clipPath id="clip0">
<rect width="19" height="19" fill="white"/>
</clipPath>
</defs>
</svg>
