<svg width="437" height="437" viewBox="0 0 437 437" fill="none" xmlns="http://www.w3.org/2000/svg">
<path d="M437 334.218H0V334.436H437V334.218Z" fill="#EBEBEB"/>
<path d="M375.567 340.17H290.264V340.388H375.567V340.17Z" fill="#EBEBEB"/>
<path d="M293.376 345.221H252.586V345.44H293.376V345.221Z" fill="#EBEBEB"/>
<path d="M393.213 348.28H376.441V348.499H393.213V348.28Z" fill="#EBEBEB"/>
<path d="M191.406 345.326H110.535V345.545H191.406V345.326Z" fill="#EBEBEB"/>
<path d="M102.756 345.326H85.3636V345.545H102.756V345.326Z" fill="#EBEBEB"/>
<path d="M79.2281 341.638H50.5085V341.856H79.2281V341.638Z" fill="#EBEBEB"/>
<path d="M207.138 295.237H38.3773C37.0553 295.235 35.7882 294.708 34.8541 293.772C33.9201 292.837 33.3955 291.569 33.3955 290.247V53.0168C33.407 51.7024 33.9367 50.4455 34.8695 49.5193C35.8023 48.5931 37.0628 48.0723 38.3773 48.07H207.138C208.462 48.07 209.731 48.5958 210.667 49.5317C211.603 50.4676 212.129 51.737 212.129 53.0605V290.247C212.129 291.57 211.603 292.84 210.667 293.776C209.731 294.711 208.462 295.237 207.138 295.237ZM38.3773 48.2448C37.1132 48.2471 35.9017 48.7509 35.0086 49.6456C34.1156 50.5403 33.614 51.7527 33.614 53.0168V290.247C33.614 291.511 34.1156 292.723 35.0086 293.618C35.9017 294.513 37.1132 295.016 38.3773 295.019H207.138C208.403 295.016 209.615 294.513 210.51 293.618C211.404 292.724 211.908 291.512 211.91 290.247V53.0168C211.908 51.7519 211.404 50.5395 210.51 49.6451C209.615 48.7506 208.403 48.2471 207.138 48.2448H38.3773Z" fill="#EBEBEB"/>
<path d="M396.193 295.237H227.424C226.101 295.235 224.833 294.708 223.897 293.773C222.962 292.838 222.435 291.57 222.433 290.247V53.0168C222.447 51.7016 222.978 50.4447 223.913 49.5187C224.847 48.5928 226.108 48.0722 227.424 48.07H396.193C397.506 48.0746 398.764 48.5964 399.695 49.5224C400.626 50.4483 401.154 51.7039 401.166 53.0168V290.247C401.166 291.567 400.643 292.834 399.71 293.769C398.778 294.705 397.513 295.233 396.193 295.237ZM227.424 48.2448C226.159 48.2471 224.946 48.7506 224.052 49.6451C223.157 50.5395 222.654 51.7519 222.651 53.0168V290.247C222.654 291.512 223.157 292.724 224.052 293.618C224.946 294.513 226.159 295.016 227.424 295.019H396.193C397.458 295.016 398.67 294.513 399.565 293.618C400.459 292.724 400.963 291.512 400.965 290.247V53.0168C400.963 51.7519 400.459 50.5395 399.565 49.6451C398.67 48.7506 397.458 48.2471 396.193 48.2448H227.424Z" fill="#EBEBEB"/>
<path d="M341.795 326.168H77.8122L62.0715 147.103H326.054L341.795 326.168Z" fill="#F0F0F0"/>
<path d="M73.1538 331.875L77.8122 326.168L62.0715 147.103L57.4131 152.898L73.1538 331.875Z" fill="#E0E0E0"/>
<path d="M81.282 319.377L66.7998 154.427C66.7648 154.016 66.8153 153.603 66.9482 153.213C67.0811 152.823 67.2935 152.464 67.5719 152.16C67.8504 151.856 68.1888 151.613 68.5659 151.447C68.943 151.281 69.3505 151.194 69.7627 151.193H319.604C320.348 151.191 321.066 151.468 321.615 151.97C322.164 152.472 322.504 153.162 322.567 153.903L337.067 318.853C337.103 319.264 337.054 319.678 336.921 320.068C336.789 320.459 336.577 320.818 336.298 321.122C336.019 321.426 335.68 321.669 335.302 321.835C334.925 322.001 334.517 322.087 334.104 322.086H84.2624C83.5156 322.094 82.7936 321.818 82.241 321.316C81.6884 320.814 81.3459 320.121 81.282 319.377Z" fill="#FAFAFA"/>
<path d="M114.922 326.168H75.1465L72.3322 334.218H112.108L114.922 326.168Z" fill="#E0E0E0"/>
<path d="M114.922 326.168H376.441L373.626 334.218H112.108L114.922 326.168Z" fill="#F5F5F5"/>
<path d="M222.608 326.168H272.74L272.199 331.438H222.075L222.608 326.168Z" fill="#E0E0E0"/>
<path d="M298.576 135.348H361.915C367.159 170.098 342.888 198.686 308.137 198.686C296.627 198.585 285.315 195.672 275.188 190.2L298.576 135.348Z" fill="#E0E0E0"/>
<path d="M298.576 135.348L331.954 86.8319C339.925 92.7595 346.704 100.14 351.934 108.586C357.026 116.745 360.421 125.847 361.915 135.348H298.576Z" fill="#EBEBEB"/>
<path d="M298.576 135.348L289.006 72.0089C296.581 72.0401 304.099 73.3339 311.249 75.837C318.674 78.417 325.658 82.1255 331.954 86.8319L298.576 135.348Z" fill="#E6E6E6"/>
<path d="M298.576 135.348L275.188 190.2C253.906 178.908 238.646 157.949 235.237 135.348C229.993 100.606 254.255 72.0089 289.006 72.0089L298.576 135.348Z" fill="#F0F0F0"/>
<path d="M220.379 248.382H276.569C277.311 253.196 277.405 258.087 276.848 262.925C276.319 267.589 275.118 272.152 273.282 276.472L220.379 248.382Z" fill="#EBEBEB"/>
<path d="M220.379 248.382L221.786 193.049C235.545 195.563 248.187 202.281 257.97 212.277C267.986 222.389 274.576 235.185 276.569 248.391L220.379 248.382Z" fill="#E0E0E0"/>
<path d="M220.379 248.382L170.491 267.61C167.362 261.586 165.236 255.091 164.198 248.382C159.54 217.556 181.075 192.193 211.893 192.193C215.209 192.203 218.519 192.495 221.786 193.067L220.379 248.382Z" fill="#F0F0F0"/>
<path d="M220.379 248.382L273.282 276.472C265.88 293.839 248.915 304.563 228.874 304.563C205.276 304.563 181.897 289.705 170.491 267.601L220.379 248.382Z" fill="white"/>
<path d="M218.5 373.688C312.09 373.688 387.96 369.258 387.96 363.794C387.96 358.33 312.09 353.9 218.5 353.9C124.91 353.9 49.0402 358.33 49.0402 363.794C49.0402 369.258 124.91 373.688 218.5 373.688Z" fill="#F5F5F5"/>
<path d="M210.276 209.227H131.546C129.08 209.179 126.718 208.228 124.908 206.554C123.097 204.88 121.963 202.6 121.722 200.146L117.78 151.744C117.666 150.585 117.797 149.414 118.166 148.31C118.535 147.205 119.133 146.19 119.921 145.332C120.708 144.474 121.668 143.792 122.738 143.331C123.807 142.869 124.962 142.639 126.127 142.654H204.848C207.315 142.703 209.678 143.655 211.489 145.331C213.3 147.006 214.433 149.288 214.672 151.744L218.614 200.146C218.728 201.304 218.597 202.473 218.229 203.577C217.86 204.681 217.263 205.694 216.476 206.552C215.689 207.409 214.73 208.09 213.661 208.551C212.593 209.012 211.439 209.242 210.276 209.227Z" fill="white"/>
<path d="M210.276 209.603H131.546C128.98 209.558 126.521 208.568 124.639 206.824C122.757 205.079 121.585 202.701 121.346 200.146L117.404 151.735C117.286 150.523 117.425 149.3 117.812 148.145C118.199 146.99 118.826 145.93 119.651 145.034C120.476 144.138 121.481 143.426 122.6 142.946C123.719 142.465 124.927 142.225 126.144 142.244H204.866C207.427 142.288 209.883 143.273 211.764 145.013C213.646 146.752 214.821 149.123 215.065 151.674L218.989 200.146C219.108 201.358 218.969 202.582 218.582 203.736C218.194 204.891 217.568 205.951 216.743 206.847C215.918 207.743 214.913 208.455 213.794 208.936C212.675 209.416 211.467 209.656 210.249 209.638L210.276 209.603ZM126.127 143.03C125.014 143.009 123.909 143.225 122.886 143.663C121.862 144.101 120.943 144.752 120.19 145.571C119.437 146.391 118.866 147.361 118.515 148.417C118.164 149.474 118.042 150.593 118.156 151.7L122.098 200.146C122.325 202.509 123.413 204.705 125.156 206.317C126.898 207.929 129.173 208.843 131.546 208.886H210.276C211.395 208.907 212.505 208.688 213.533 208.246C214.56 207.803 215.482 207.146 216.235 206.319C216.989 205.491 217.558 204.513 217.903 203.448C218.248 202.384 218.362 201.258 218.238 200.146L214.296 151.735C214.069 149.372 212.981 147.176 211.238 145.564C209.496 143.952 207.221 143.038 204.848 142.995L126.127 143.03Z" fill="#407BFF"/>
<path d="M188.906 195.094C185.782 198.465 181.772 200.889 177.335 202.086L176.032 198.398C185.725 195.776 192.289 186.704 191.415 175.962C190.852 169.666 187.949 163.809 183.278 159.549L185.786 156.813C197.148 167.292 198.555 184.58 188.906 195.094Z" fill="#E0E0E0"/>
<path d="M185.786 156.787L183.278 159.522C178.676 155.203 172.616 152.775 166.305 152.723C163.333 152.687 160.387 153.274 157.656 154.447C154.925 155.619 152.471 157.351 150.45 159.531L147.488 156.787C149.851 154.251 152.717 152.236 155.903 150.869C159.088 149.503 162.524 148.815 165.99 148.851C173.35 148.922 180.415 151.754 185.786 156.787Z" fill="#263238"/>
<path d="M177.335 202.104C168.201 204.595 157.993 201.92 150.608 195.112C139.246 184.624 137.839 167.31 147.488 156.804L150.45 159.549C148.449 161.753 146.929 164.35 145.988 167.175C145.048 170 144.707 172.99 144.988 175.954C146.028 188.775 157.268 199.167 170.089 199.167C172.096 199.171 174.094 198.91 176.032 198.389L177.335 202.104Z" fill="#407BFF"/>
<path d="M103.036 64.4051H96.7256V65.1655H103.036V64.4051Z" fill="#407BFF"/>
<path d="M90.5988 64.4051H76.2303V65.1655H90.5988V64.4051Z" fill="#407BFF"/>
<path d="M157.442 133.975H78.7212C76.2553 133.929 73.8922 132.979 72.0811 131.305C70.27 129.63 69.137 127.349 68.8974 124.895L64.9557 76.4838C64.8411 75.325 64.9726 74.1551 65.3414 73.0507C65.7103 71.9463 66.3084 70.9322 67.0963 70.0749C67.8843 69.2177 68.8445 68.5365 69.9139 68.076C70.9834 67.6155 72.1381 67.3862 73.3024 67.4029H152.024C154.489 67.451 156.851 68.4021 158.662 70.0759C160.472 71.7497 161.606 74.0298 161.847 76.4838L165.789 124.895C165.904 126.053 165.772 127.223 165.403 128.328C165.034 129.432 164.436 130.446 163.648 131.303C162.86 132.161 161.9 132.842 160.831 133.302C159.761 133.763 158.607 133.992 157.442 133.975Z" fill="white"/>
<path d="M157.442 134.36H78.7212C76.1594 134.316 73.7036 133.33 71.8223 131.591C69.941 129.851 68.7661 127.48 68.5216 124.93L64.5799 76.5187C64.4616 75.3066 64.6006 74.0831 64.9878 72.9283C65.3749 71.7736 66.0015 70.7136 66.8265 69.8176C67.6514 68.9217 68.6563 68.21 69.7752 67.7291C70.8942 67.2483 72.1021 67.009 73.3199 67.0271H152.041C154.603 67.0712 157.059 68.0571 158.94 69.7965C160.821 71.5359 161.996 73.9071 162.241 76.4575L166.182 124.868C166.301 126.081 166.162 127.304 165.774 128.459C165.387 129.614 164.761 130.674 163.936 131.569C163.111 132.465 162.106 133.177 160.987 133.658C159.868 134.139 158.66 134.378 157.442 134.36ZM73.3024 67.7787C72.1885 67.7579 71.083 67.9739 70.0588 68.4124C69.0347 68.851 68.1155 69.502 67.3619 70.3225C66.6083 71.143 66.0376 72.1143 65.6876 73.1719C65.3376 74.2295 65.2162 75.3495 65.3315 76.4575L69.2733 124.868C69.5004 127.231 70.5888 129.428 72.3312 131.039C74.0735 132.651 76.348 133.566 78.7212 133.608H157.442C158.555 133.629 159.66 133.413 160.684 132.975C161.707 132.537 162.626 131.887 163.379 131.067C164.133 130.248 164.704 129.278 165.054 128.221C165.405 127.165 165.527 126.046 165.413 124.938L161.472 76.5274C161.243 74.1655 160.154 71.9701 158.412 70.3586C156.67 68.7472 154.396 67.8321 152.024 67.7874L73.3024 67.7787Z" fill="#407BFF"/>
<path d="M72.0788 81.2908H113.795L113.454 77.1743H71.7379L72.0788 81.2908Z" fill="#E0E0E0"/>
<path d="M155.511 81.2908H113.795L113.454 77.1743H155.179L155.511 81.2908Z" fill="#407BFF"/>
<path d="M72.9528 92.0235H84.8479L84.5158 87.8982H72.6119L72.9528 92.0235Z" fill="#E0E0E0"/>
<path d="M156.385 92.0235H84.8479L84.5158 87.8982H156.053L156.385 92.0235Z" fill="#407BFF"/>
<path d="M73.8268 102.747H110.954L110.622 98.6309H73.4859L73.8268 102.747Z" fill="#E0E0E0"/>
<path d="M157.259 102.747H110.954L110.622 98.6309H156.927L157.259 102.747Z" fill="#407BFF"/>
<path d="M74.7008 113.48H138.075L137.734 109.364H74.3599L74.7008 113.48Z" fill="#E0E0E0"/>
<path d="M158.133 113.48H138.075L137.734 109.364H157.792L158.133 113.48Z" fill="#407BFF"/>
<path d="M75.5661 124.213H104.88L104.548 120.088H75.2339L75.5661 124.213Z" fill="#E0E0E0"/>
<path d="M159.007 124.213H104.88L104.548 120.088H158.666L159.007 124.213Z" fill="#407BFF"/>
<path d="M265.067 133.975H186.346C183.884 133.923 181.528 132.97 179.722 131.296C177.916 129.623 176.787 127.345 176.548 124.895L172.606 76.4838C172.492 75.328 172.623 74.1611 172.989 73.0591C173.356 71.9571 173.951 70.9448 174.735 70.0881C175.519 69.2314 176.475 68.5495 177.541 68.0868C178.606 67.6242 179.757 67.3911 180.918 67.4029H259.648C262.113 67.451 264.475 68.4021 266.286 70.0759C268.097 71.7497 269.23 74.0298 269.472 76.4838L273.413 124.895C273.528 126.053 273.397 127.223 273.028 128.328C272.659 129.432 272.061 130.446 271.273 131.303C270.485 132.161 269.525 132.842 268.455 133.302C267.386 133.763 266.231 133.992 265.067 133.975Z" fill="white"/>
<path d="M265.067 134.36H186.346C183.786 134.305 181.336 133.315 179.455 131.578C177.575 129.841 176.395 127.476 176.137 124.93L172.178 76.5187C172.06 75.3066 172.199 74.0831 172.586 72.9283C172.973 71.7736 173.6 70.7136 174.425 69.8176C175.25 68.9217 176.254 68.21 177.373 67.7291C178.492 67.2483 179.7 67.009 180.918 67.0271H259.648C262.21 67.0712 264.666 68.0571 266.547 69.7965C268.428 71.5359 269.603 73.9071 269.848 76.4575L273.789 124.868C273.907 126.081 273.768 127.304 273.381 128.459C272.994 129.614 272.368 130.674 271.543 131.569C270.718 132.465 269.713 133.177 268.594 133.658C267.475 134.139 266.267 134.378 265.049 134.36H265.067ZM180.918 67.7787C179.805 67.7591 178.7 67.9761 177.677 68.4152C176.654 68.8542 175.736 69.5055 174.983 70.3259C174.231 71.1462 173.661 72.117 173.311 73.174C172.962 74.231 172.841 75.3502 172.956 76.4575L176.898 124.868C177.125 127.231 178.213 129.428 179.956 131.039C181.698 132.651 183.972 133.566 186.346 133.608H265.067C266.18 133.629 267.285 133.413 268.308 132.975C269.331 132.537 270.25 131.887 271.004 131.067C271.757 130.248 272.328 129.278 272.679 128.221C273.029 127.165 273.152 126.046 273.038 124.938L269.096 76.5274C268.867 74.1655 267.778 71.9701 266.036 70.3586C264.294 68.7472 262.021 67.8321 259.648 67.7874L180.918 67.7787Z" fill="#407BFF"/>
<path d="M225.606 124.213H224.216L220.388 77.1743H221.778L225.606 124.213Z" fill="#E0E0E0"/>
<path d="M227.703 104.662H218.937L217.434 86.29H226.209L227.703 104.662Z" fill="#407BFF"/>
<path d="M208.344 124.213H206.954L203.126 77.1743H204.516L208.344 124.213Z" fill="#E0E0E0"/>
<path d="M210.783 108.743H202.008L200.697 92.6353H209.463L210.783 108.743Z" fill="#407BFF"/>
<path d="M191.091 124.213H189.702L185.874 77.1743H187.263L191.091 124.213Z" fill="#E0E0E0"/>
<path d="M192.446 95.4932H183.68L182.78 84.4371H191.546L192.446 95.4932Z" fill="#263238"/>
<path d="M242.858 124.213H241.469L237.641 77.1743H239.03L242.858 124.213Z" fill="#E0E0E0"/>
<path d="M245.804 115.097H237.038L234.695 86.29H243.461L245.804 115.097Z" fill="#263238"/>
<path d="M260.12 124.213H258.721L254.893 77.1743H256.283L260.12 124.213Z" fill="#E0E0E0"/>
<path d="M263.345 118.549H254.579L252.7 95.4758H261.466L263.345 118.549Z" fill="#407BFF"/>
<path d="M180.822 283.849H102.092C99.6272 283.799 97.2662 282.847 95.4559 281.174C93.6455 279.5 92.5114 277.221 92.2682 274.768L88.3352 226.366C88.2207 225.208 88.3519 224.039 88.7203 222.935C89.0887 221.831 89.6859 220.818 90.4729 219.961C91.2599 219.103 92.219 218.422 93.2875 217.961C94.3559 217.5 95.5096 217.27 96.6732 217.285H175.403C177.868 217.335 180.229 218.287 182.039 219.96C183.849 221.634 184.984 223.913 185.227 226.366L189.169 274.777C189.28 275.935 189.147 277.103 188.777 278.206C188.407 279.309 187.809 280.321 187.021 281.177C186.234 282.033 185.275 282.713 184.206 283.174C183.138 283.634 181.985 283.864 180.822 283.849Z" fill="white"/>
<path d="M180.822 284.225H102.092C99.5307 284.179 97.0759 283.192 95.1951 281.453C93.3142 279.714 92.1387 277.344 91.8924 274.794L87.9506 226.366C87.8324 225.154 87.9714 223.93 88.3585 222.776C88.7457 221.621 89.3722 220.561 90.1972 219.665C91.0222 218.769 92.0271 218.057 93.146 217.576C94.265 217.096 95.4728 216.856 96.6906 216.874H175.421C177.988 216.926 180.447 217.923 182.325 219.674C184.204 221.426 185.371 223.808 185.603 226.366L189.544 274.768C189.663 275.98 189.524 277.204 189.137 278.359C188.749 279.513 188.123 280.573 187.298 281.469C186.473 282.365 185.468 283.077 184.349 283.558C183.23 284.039 182.022 284.278 180.804 284.26L180.822 284.225ZM96.6732 217.626C95.5543 217.605 94.4439 217.824 93.4162 218.266C92.3884 218.709 91.4669 219.366 90.7133 220.193C89.9597 221.021 89.3913 221.999 89.046 223.064C88.7007 224.128 88.5865 225.254 88.711 226.366L92.644 274.733C92.8709 277.094 93.9581 279.29 95.6987 280.901C97.4392 282.513 99.7116 283.428 102.083 283.473H180.813C181.926 283.493 183.031 283.276 184.054 282.837C185.077 282.398 185.995 281.746 186.748 280.926C187.5 280.106 188.07 279.135 188.42 278.078C188.769 277.021 188.891 275.902 188.775 274.794L184.851 226.366C184.622 224.004 183.533 221.809 181.791 220.197C180.049 218.586 177.776 217.671 175.403 217.626H96.6732Z" fill="#407BFF"/>
<path d="M107.327 249.405L124.292 269.009L143.756 238.995L155.782 254.509L158.718 249.982L178.392 273.553L102.844 273.527L107.327 249.405Z" fill="#407BFF"/>
<path d="M163.971 250.628L156.088 267.514L130.934 227.572L119.091 252.936L115.289 246.914L102.852 273.553L178.383 273.51L163.971 250.628Z" fill="#E0E0E0"/>
<path d="M325.897 139.018C328.003 142.969 329.813 146.884 331.517 150.94C333.225 155.041 334.684 159.24 335.887 163.517C336.193 164.6 336.455 165.719 336.709 166.838C336.905 167.613 337.022 168.407 337.058 169.206C337.088 170.001 337.044 170.797 336.927 171.584C336.466 174.126 335.58 176.573 334.305 178.82C332.102 182.811 329.351 186.473 326.133 189.702C325.719 190.128 325.166 190.391 324.574 190.443C323.982 190.495 323.391 190.332 322.909 189.984C322.428 189.636 322.087 189.126 321.951 188.548C321.814 187.97 321.89 187.362 322.165 186.835L322.226 186.721C324.16 183.161 325.842 179.469 327.261 175.674C327.86 174.075 328.223 172.396 328.336 170.692C328.339 170.414 328.315 170.136 328.266 169.862C328.253 169.775 328.23 169.69 328.196 169.608L328.03 169.093C327.741 168.149 327.444 167.205 327.095 166.261C325.766 162.468 324.132 158.657 322.427 154.899C320.723 151.141 318.931 147.304 317.113 143.659V143.581C316.513 142.411 316.402 141.051 316.804 139.8C317.207 138.548 318.09 137.508 319.259 136.908C320.429 136.307 321.789 136.196 323.04 136.599C324.291 137.001 325.332 137.884 325.932 139.053L325.897 139.018Z" fill="#407BFF"/>
<path d="M323.162 186.346L319.01 187.665L323.922 193.408C325.111 192.287 325.996 190.883 326.491 189.326C326.599 188.926 326.582 188.503 326.441 188.114C326.3 187.725 326.043 187.388 325.705 187.15L325.006 186.643C324.743 186.452 324.44 186.325 324.119 186.273C323.799 186.222 323.471 186.247 323.162 186.346Z" fill="#7F3E3B"/>
<path d="M313.242 191.205L318.503 195.383L323.904 193.407L318.993 187.665L313.242 191.205Z" fill="#7F3E3B"/>
<path d="M295.281 109.783C295.176 110.299 294.818 110.657 294.477 110.596C294.136 110.535 293.952 110.054 294.057 109.538C294.162 109.023 294.521 108.664 294.861 108.726C295.202 108.787 295.412 109.25 295.281 109.783Z" fill="#263238"/>
<path d="M294.861 110.675C293.923 112.129 292.791 113.45 291.497 114.599C291.798 114.923 292.168 115.177 292.579 115.343C292.989 115.509 293.431 115.583 293.874 115.56L294.861 110.675Z" fill="#630F0F"/>
<path d="M297.754 107.301C297.814 107.3 297.873 107.281 297.923 107.247C297.973 107.214 298.012 107.167 298.036 107.112C298.06 107.056 298.067 106.996 298.058 106.936C298.048 106.877 298.022 106.821 297.982 106.777C297.658 106.409 297.251 106.125 296.795 105.947C296.339 105.769 295.847 105.703 295.36 105.754C295.314 105.754 295.269 105.764 295.227 105.784C295.186 105.803 295.149 105.831 295.12 105.866C295.091 105.901 295.069 105.942 295.057 105.987C295.045 106.031 295.043 106.077 295.051 106.122C295.059 106.167 295.076 106.21 295.102 106.247C295.128 106.285 295.162 106.316 295.201 106.34C295.24 106.363 295.284 106.377 295.33 106.382C295.375 106.386 295.421 106.381 295.464 106.366C295.854 106.336 296.246 106.4 296.606 106.552C296.966 106.704 297.285 106.94 297.536 107.24C297.598 107.287 297.676 107.309 297.754 107.301Z" fill="#263238"/>
<path d="M309.641 119.196C308.706 123.986 308.137 130.611 311.485 133.809C311.485 133.809 310.174 138.66 301.285 138.66C291.505 138.66 296.583 134.404 296.583 134.404C300.647 133.136 300.612 128.513 299.677 124.79L309.641 119.196Z" fill="#7F3E3B"/>
<path d="M294.861 133.652C294.861 133.652 296.295 130.278 297.746 129.693C299.196 129.107 308.478 127.587 310.611 128.933C312.743 130.278 314.194 134.596 314.194 134.596L294.861 133.652Z" fill="#407BFF"/>
<path d="M304.668 357.466C303.794 357.466 303.016 357.352 302.745 356.968C302.674 356.87 302.637 356.752 302.637 356.631C302.637 356.511 302.674 356.393 302.745 356.295C302.798 356.203 302.869 356.124 302.955 356.062C303.041 356 303.139 355.957 303.243 355.936C304.327 355.639 306.617 356.942 306.739 356.994C306.766 357.01 306.787 357.033 306.799 357.062C306.812 357.09 306.815 357.121 306.809 357.151C306.806 357.184 306.792 357.214 306.77 357.237C306.748 357.261 306.719 357.277 306.687 357.282C306.02 357.401 305.345 357.463 304.668 357.466ZM303.628 356.199C303.529 356.185 303.429 356.185 303.33 356.199C303.266 356.209 303.205 356.235 303.152 356.273C303.099 356.31 303.056 356.36 303.025 356.417C302.92 356.609 302.955 356.697 303.025 356.758C303.33 357.178 304.982 357.186 306.197 357.02C305.403 356.576 304.531 356.291 303.628 356.181V356.199Z" fill="#407BFF"/>
<path d="M306.643 357.265H306.582C305.786 356.907 304.222 355.517 304.344 354.757C304.344 354.582 304.493 354.363 304.921 354.32C305.077 354.301 305.235 354.315 305.385 354.36C305.536 354.405 305.675 354.48 305.795 354.582C306.669 355.272 306.809 357.029 306.818 357.108C306.817 357.135 306.81 357.161 306.798 357.185C306.786 357.21 306.769 357.231 306.748 357.247C306.716 357.266 306.679 357.272 306.643 357.265ZM305.043 354.643H304.956C304.676 354.643 304.659 354.783 304.65 354.818C304.58 355.263 305.638 356.373 306.451 356.863C306.371 356.117 306.067 355.412 305.577 354.844C305.429 354.701 305.232 354.619 305.026 354.617L305.043 354.643Z" fill="#407BFF"/>
<path d="M313.836 357.108H307.298L306.643 341.961H313.18L313.836 357.108Z" fill="#7F3E3B"/>
<path d="M307.333 356.356H314.483C314.612 356.357 314.738 356.401 314.84 356.482C314.941 356.563 315.013 356.675 315.042 356.802L316.327 362.614C316.36 362.754 316.361 362.9 316.329 363.04C316.298 363.181 316.234 363.312 316.144 363.424C316.054 363.536 315.939 363.626 315.809 363.687C315.678 363.748 315.536 363.779 315.392 363.776C312.813 363.733 309.09 363.584 305.848 363.584C302.063 363.584 301.6 363.794 297.16 363.794C294.477 363.794 293.734 361.076 294.853 360.831C299.974 359.712 301.338 359.59 305.76 356.863C306.227 356.551 306.772 356.376 307.333 356.356Z" fill="#263238"/>
<path d="M323.196 133.827C329.314 135.234 333.37 151.779 333.37 151.779L323.135 159.47C319.322 156.743 316.617 152.735 315.514 148.178C313.434 139.98 316.93 132.394 323.196 133.827Z" fill="#263238"/>
<path opacity="0.2" d="M317.944 145.338C321.274 148.633 323.424 153.833 323.686 159.051L323.144 159.47C319.337 156.74 316.638 152.732 315.54 148.178C315.418 147.689 315.304 147.199 315.217 146.718L317.944 145.338Z" fill="black"/>
<path d="M345.239 158.477L295.569 178.324L310.327 215.26L359.998 195.414L345.239 158.477Z" fill="#407BFF"/>
<path opacity="0.5" d="M344.518 158.763L295.577 178.318L310.336 215.254L359.276 195.699L344.518 158.763Z" fill="white"/>
<g opacity="0.5">
<path opacity="0.5" d="M304.535 178.526L299.9 180.377L301.214 183.664L305.848 181.813L304.535 178.526Z" fill="#407BFF"/>
<path opacity="0.5" d="M312.188 175.47L307.554 177.321L308.867 180.608L313.501 178.757L312.188 175.47Z" fill="#407BFF"/>
<path opacity="0.5" d="M319.836 172.413L315.202 174.264L316.515 177.551L321.149 175.7L319.836 172.413Z" fill="#407BFF"/>
<path opacity="0.5" d="M327.489 169.353L322.854 171.205L324.168 174.492L328.802 172.64L327.489 169.353Z" fill="#407BFF"/>
<path opacity="0.5" d="M335.133 166.297L330.499 168.149L331.812 171.436L336.447 169.584L335.133 166.297Z" fill="#407BFF"/>
<path opacity="0.5" d="M342.787 163.25L338.152 165.101L339.466 168.388L344.1 166.537L342.787 163.25Z" fill="#407BFF"/>
<path opacity="0.5" d="M306.708 183.95L302.074 185.802L303.388 189.089L308.022 187.237L306.708 183.95Z" fill="#407BFF"/>
<path opacity="0.5" d="M314.353 180.894L309.719 182.746L311.032 186.033L315.666 184.181L314.353 180.894Z" fill="#407BFF"/>
<path opacity="0.5" d="M321.998 177.838L317.363 179.69L318.677 182.977L323.311 181.125L321.998 177.838Z" fill="#407BFF"/>
<path opacity="0.5" d="M329.659 174.778L325.025 176.63L326.338 179.917L330.973 178.065L329.659 174.778Z" fill="#407BFF"/>
<path opacity="0.5" d="M337.307 171.722L332.673 173.573L333.986 176.86L338.621 175.009L337.307 171.722Z" fill="#407BFF"/>
<path opacity="0.5" d="M344.952 168.665L340.317 170.517L341.631 173.804L346.265 171.952L344.952 168.665Z" fill="#407BFF"/>
<path opacity="0.5" d="M308.87 189.367L304.236 191.218L305.549 194.505L310.184 192.654L308.87 189.367Z" fill="#407BFF"/>
<path opacity="0.5" d="M316.515 186.31L311.881 188.162L313.194 191.449L317.828 189.597L316.515 186.31Z" fill="#407BFF"/>
<path opacity="0.5" d="M324.172 183.262L319.537 185.114L320.851 188.401L325.485 186.549L324.172 183.262Z" fill="#407BFF"/>
<path opacity="0.5" d="M331.824 180.203L327.19 182.055L328.503 185.342L333.138 183.49L331.824 180.203Z" fill="#407BFF"/>
<path opacity="0.5" d="M339.469 177.147L334.835 178.998L336.148 182.285L340.782 180.434L339.469 177.147Z" fill="#407BFF"/>
<path opacity="0.5" d="M347.122 174.091L342.488 175.942L343.801 179.229L348.436 177.378L347.122 174.091Z" fill="#407BFF"/>
<path opacity="0.5" d="M311.044 194.8L306.41 196.651L307.723 199.938L312.357 198.087L311.044 194.8Z" fill="#407BFF"/>
<path opacity="0.5" d="M318.689 191.744L314.054 193.595L315.368 196.882L320.002 195.031L318.689 191.744Z" fill="#407BFF"/>
<path opacity="0.5" d="M326.333 188.679L321.699 190.53L323.012 193.817L327.647 191.966L326.333 188.679Z" fill="#407BFF"/>
<path opacity="0.5" d="M333.995 185.619L329.361 187.471L330.674 190.758L335.308 188.906L333.995 185.619Z" fill="#407BFF"/>
<path opacity="0.5" d="M341.639 182.563L337.005 184.415L338.319 187.702L342.953 185.85L341.639 182.563Z" fill="#407BFF"/>
<path opacity="0.5" d="M349.287 179.515L344.653 181.367L345.966 184.654L350.601 182.802L349.287 179.515Z" fill="#407BFF"/>
<path opacity="0.5" d="M313.206 200.216L308.571 202.068L309.885 205.355L314.519 203.503L313.206 200.216Z" fill="#407BFF"/>
<path opacity="0.5" d="M320.85 197.16L316.216 199.012L317.53 202.299L322.164 200.447L320.85 197.16Z" fill="#407BFF"/>
<path opacity="0.5" d="M328.504 194.104L323.869 195.956L325.183 199.243L329.817 197.391L328.504 194.104Z" fill="#407BFF"/>
<path opacity="0.5" d="M336.152 191.056L331.517 192.907L332.831 196.194L337.465 194.343L336.152 191.056Z" fill="#407BFF"/>
<path opacity="0.5" d="M343.804 187.996L339.17 189.848L340.484 193.135L345.118 191.283L343.804 187.996Z" fill="#407BFF"/>
<path opacity="0.5" d="M351.458 184.931L346.824 186.783L348.137 190.07L352.771 188.218L351.458 184.931Z" fill="#407BFF"/>
<path opacity="0.5" d="M315.38 205.641L310.745 207.492L312.059 210.779L316.693 208.928L315.38 205.641Z" fill="#407BFF"/>
<path opacity="0.5" d="M323.024 202.584L318.39 204.436L319.703 207.723L324.338 205.871L323.024 202.584Z" fill="#407BFF"/>
<path opacity="0.5" d="M330.669 199.528L326.035 201.38L327.348 204.667L331.982 202.815L330.669 199.528Z" fill="#407BFF"/>
<path opacity="0.5" d="M338.313 196.472L333.679 198.324L334.993 201.611L339.627 199.759L338.313 196.472Z" fill="#407BFF"/>
<path opacity="0.5" d="M345.975 193.404L341.341 195.256L342.654 198.543L347.288 196.691L345.975 193.404Z" fill="#407BFF"/>
<path opacity="0.5" d="M353.62 190.357L348.985 192.208L350.299 195.495L354.933 193.644L353.62 190.357Z" fill="#407BFF"/>
</g>
<path d="M341.131 170.168C341.012 169.83 341.028 169.459 341.176 169.132C341.324 168.805 341.593 168.549 341.925 168.416C342.258 168.282 342.63 168.283 342.962 168.417C343.295 168.552 343.562 168.809 343.709 169.136C343.786 169.307 343.827 169.492 343.831 169.679C343.835 169.867 343.8 170.053 343.73 170.227C343.66 170.4 343.555 170.558 343.422 170.69C343.29 170.822 343.132 170.927 342.958 170.996C342.784 171.066 342.598 171.099 342.41 171.095C342.223 171.091 342.038 171.049 341.868 170.971C341.697 170.894 341.544 170.783 341.417 170.645C341.291 170.507 341.193 170.345 341.131 170.168Z" fill="white"/>
<path d="M339.986 189.492C339.887 189.238 339.865 188.961 339.923 188.694C339.981 188.428 340.116 188.185 340.312 187.995C340.508 187.806 340.756 187.679 341.024 187.63C341.293 187.581 341.569 187.613 341.82 187.721C342.07 187.829 342.282 188.009 342.431 188.237C342.579 188.466 342.656 188.734 342.653 189.006C342.649 189.279 342.565 189.544 342.411 189.769C342.257 189.994 342.039 190.168 341.786 190.27C341.617 190.338 341.436 190.372 341.254 190.369C341.072 190.367 340.892 190.328 340.724 190.256C340.557 190.184 340.405 190.079 340.279 189.948C340.152 189.817 340.052 189.662 339.986 189.492Z" fill="white"/>
<path d="M322.506 190.182C322.404 189.927 322.38 189.647 322.438 189.378C322.495 189.109 322.631 188.863 322.828 188.671C323.025 188.479 323.275 188.35 323.546 188.301C323.816 188.251 324.095 188.283 324.348 188.392C324.6 188.501 324.815 188.682 324.964 188.914C325.113 189.145 325.191 189.415 325.186 189.69C325.182 189.965 325.096 190.232 324.939 190.459C324.783 190.685 324.562 190.859 324.306 190.96C324.137 191.028 323.956 191.062 323.774 191.06C323.592 191.057 323.412 191.019 323.244 190.946C323.077 190.874 322.925 190.769 322.799 190.638C322.672 190.507 322.573 190.352 322.506 190.182Z" fill="white"/>
<path d="M311.546 207.138C311.443 206.883 311.417 206.603 311.473 206.333C311.529 206.064 311.664 205.817 311.86 205.624C312.057 205.431 312.306 205.301 312.576 205.25C312.847 205.199 313.127 205.229 313.38 205.338C313.633 205.446 313.848 205.627 313.998 205.857C314.149 206.088 314.227 206.358 314.223 206.633C314.22 206.909 314.135 207.177 313.978 207.403C313.822 207.63 313.602 207.806 313.347 207.907C313.006 208.042 312.625 208.037 312.288 207.893C311.951 207.749 311.684 207.478 311.546 207.138Z" fill="white"/>
<path d="M312.84 207.138C312.739 207.14 312.641 207.109 312.56 207.051C312.502 207.015 312.453 206.968 312.414 206.913C312.375 206.858 312.347 206.796 312.332 206.73C312.318 206.664 312.316 206.596 312.328 206.529C312.34 206.463 312.366 206.399 312.403 206.343L323.38 189.396C323.425 189.326 323.485 189.269 323.557 189.228C323.628 189.187 323.708 189.163 323.791 189.16L340.79 188.487L341.918 169.626C341.94 169.501 342.007 169.389 342.106 169.311C342.205 169.233 342.33 169.194 342.456 169.201C342.582 169.209 342.701 169.262 342.791 169.352C342.88 169.442 342.933 169.561 342.94 169.687L341.795 189.011C341.787 189.139 341.731 189.259 341.639 189.348C341.547 189.436 341.425 189.488 341.297 189.492L324.097 190.174L313.277 206.911C313.228 206.982 313.163 207.04 313.087 207.08C313.011 207.12 312.926 207.14 312.84 207.138Z" fill="white"/>
<path d="M284.452 140.391C283.115 147.453 282.276 161.97 286.2 190.707H321.16C320.531 185.725 318.022 159.138 323.205 133.827C319.337 133.085 315.425 132.592 311.494 132.35C306.545 132.062 301.584 132.062 296.636 132.35C294.993 132.498 293.384 132.734 291.951 132.988C290.097 133.315 288.387 134.198 287.048 135.521C285.708 136.843 284.803 138.542 284.452 140.391Z" fill="#263238"/>
<path opacity="0.2" d="M289.958 151.272L283.386 151.796C283.15 160.3 283.735 172.711 286.165 190.707H286.48C290.421 177.745 295.648 159.217 289.958 151.272Z" fill="black"/>
<path opacity="0.2" d="M306.643 341.97L306.975 349.775H313.521L313.189 341.97H306.643Z" fill="black"/>
<path d="M312.752 112.195C311.074 118.471 310.401 122.22 306.538 124.833C300.717 128.749 293.428 124.248 293.236 117.605C293.035 111.619 295.814 102.372 302.544 101.104C304.027 100.819 305.558 100.918 306.992 101.39C308.426 101.863 309.716 102.694 310.738 103.805C311.761 104.916 312.483 106.27 312.835 107.739C313.188 109.207 313.159 110.741 312.752 112.195Z" fill="#7F3E3B"/>
<path d="M298.034 112.239L294.634 113.113L297.798 104.906C296.961 102.896 296.859 100.656 297.51 98.5785C297.63 98.2094 297.864 97.8877 298.178 97.6587C298.492 97.4298 298.869 97.3051 299.258 97.3024C306.302 97.1713 313.67 101.122 317.376 104.111C317.721 104.39 317.954 104.785 318.029 105.222C318.105 105.66 318.019 106.11 317.786 106.488C316.873 107.842 315.802 109.084 314.596 110.185C314.526 112.484 310.777 122.858 308.706 124.029C306.634 125.201 302.657 124.72 301.6 122.823C300.542 120.927 296.994 118.427 298.034 112.239Z" fill="#263238"/>
<path d="M301.215 112.37C300.828 113.935 299.937 115.329 298.681 116.338C297.011 117.649 295.709 116.443 295.779 114.512C295.84 112.764 296.784 110.002 298.646 109.434C300.507 108.865 301.652 110.474 301.215 112.37Z" fill="#7F3E3B"/>
<path d="M361.032 355.194C361.032 354.32 361.137 353.542 361.513 353.262C361.612 353.191 361.731 353.153 361.853 353.153C361.976 353.153 362.095 353.191 362.194 353.262C362.373 353.372 362.502 353.548 362.553 353.752C362.859 354.835 361.574 357.134 361.513 357.248C361.499 357.277 361.476 357.3 361.448 357.315C361.419 357.329 361.387 357.333 361.355 357.326C361.325 357.321 361.296 357.307 361.274 357.285C361.253 357.263 361.238 357.235 361.233 357.204C361.108 356.541 361.041 355.868 361.032 355.194ZM362.299 354.145C362.314 354.046 362.314 353.946 362.299 353.848C362.288 353.783 362.263 353.723 362.225 353.67C362.187 353.617 362.138 353.573 362.081 353.542C361.888 353.437 361.792 353.472 361.74 353.542C361.32 353.848 361.32 355.5 361.504 356.714C361.93 355.916 362.2 355.044 362.299 354.145Z" fill="#407BFF"/>
<path d="M361.224 357.16C361.221 357.14 361.221 357.119 361.224 357.099C361.574 356.312 362.972 354.739 363.715 354.853C363.89 354.853 364.108 355.001 364.152 355.421C364.172 355.577 364.159 355.735 364.114 355.886C364.069 356.036 363.993 356.176 363.89 356.295C363.217 357.169 361.451 357.317 361.382 357.326C361.355 357.331 361.327 357.327 361.303 357.316C361.278 357.305 361.257 357.288 361.242 357.265C361.232 357.25 361.225 357.232 361.222 357.214C361.219 357.196 361.22 357.178 361.224 357.16ZM363.846 355.552C363.846 355.552 363.846 355.491 363.846 355.456C363.846 355.176 363.706 355.159 363.671 355.159C363.226 355.089 362.124 356.155 361.644 356.968C362.387 356.887 363.088 356.583 363.654 356.094C363.787 355.944 363.864 355.752 363.872 355.552H363.846Z" fill="#407BFF"/>
<path d="M361.329 357.204L354.94 357.658L351.357 342.39L357.737 341.935L361.329 357.204Z" fill="#7F3E3B"/>
<path d="M361.303 355.718L354.189 355.089C354.059 355.075 353.929 355.107 353.821 355.178C353.712 355.25 353.632 355.358 353.594 355.482L351.794 361.163C351.749 361.303 351.738 361.452 351.76 361.597C351.782 361.742 351.838 361.88 351.923 362.001C352.007 362.121 352.119 362.22 352.248 362.29C352.377 362.36 352.521 362.399 352.668 362.404C355.237 362.588 358.961 362.762 362.186 363.051C365.953 363.383 363.514 363.374 367.937 363.768C370.611 364.004 371.599 361.364 370.497 361.023C365.498 359.45 364.589 358.401 362.867 356.365C362.662 356.159 362.418 355.996 362.15 355.885C361.881 355.774 361.593 355.717 361.303 355.718Z" fill="#263238"/>
<path opacity="0.2" d="M351.357 342.389L353.21 350.264L359.59 349.81L357.746 341.944L351.357 342.389Z" fill="black"/>
<path d="M298.576 190.707C298.576 190.707 313.617 240.962 319.333 259.613C325.582 280.038 349.373 347.8 349.373 347.8L360.91 345.265C360.91 345.265 344.609 287.048 337.853 258.555C332.662 236.705 321.151 190.707 321.151 190.707H298.576Z" fill="#407BFF"/>
<path d="M347.345 344.234C347.293 344.234 348.481 348.735 348.481 348.735L362.352 347.249L362.29 343.124L347.345 344.234Z" fill="#263238"/>
<path opacity="0.3" d="M306.905 213.999C315.234 215.091 318.547 244.117 319.797 261.142C319.639 260.601 319.473 260.094 319.325 259.604C316.213 249.422 310.314 229.801 305.594 214.095C306.018 213.961 306.467 213.928 306.905 213.999Z" fill="black"/>
<path d="M286.165 190.707C286.165 190.707 291.208 239.651 293.384 259.569C295.639 280.292 304.152 348.263 304.152 348.263H315.234C315.234 348.263 313.888 281.533 313.443 261.151C312.953 238.934 309.178 190.707 309.178 190.707H286.165Z" fill="#407BFF"/>
<path d="M302.404 343.849C302.352 343.849 303.025 348.446 303.025 348.446H316.502L316.869 344.347L302.404 343.849Z" fill="#263238"/>
<path d="M238.838 236.749C240.908 240.03 243.904 242.623 247.448 244.201C250.992 245.778 254.924 246.27 258.747 245.613C262.57 244.956 266.113 243.179 268.926 240.509C271.74 237.839 273.699 234.394 274.554 230.61C275.41 226.826 275.125 222.874 273.734 219.253C272.343 215.631 269.91 212.504 266.742 210.265C263.574 208.027 259.813 206.779 255.935 206.678C252.057 206.577 248.236 207.628 244.956 209.699C242.777 211.073 240.891 212.862 239.404 214.965C237.918 217.069 236.86 219.444 236.292 221.956C235.724 224.468 235.656 227.068 236.093 229.606C236.53 232.144 237.463 234.572 238.838 236.749ZM269.428 217.521C271.169 220.283 272.053 223.499 271.967 226.763C271.88 230.027 270.828 233.192 268.943 235.858C267.058 238.524 264.425 240.571 261.377 241.741C258.328 242.911 255.001 243.15 251.817 242.429C248.632 241.708 245.733 240.059 243.486 237.691C241.238 235.322 239.744 232.34 239.191 229.122C238.638 225.904 239.052 222.595 240.38 219.612C241.708 216.629 243.89 214.107 246.652 212.365C250.348 210.035 254.818 209.266 259.081 210.226C263.343 211.186 267.052 213.797 269.393 217.486L269.428 217.521Z" fill="#263238"/>
<path opacity="0.2" d="M270.18 229.635C269.514 232.55 267.998 235.203 265.825 237.258C263.652 239.312 260.919 240.677 257.971 241.179C255.022 241.681 251.991 241.298 249.261 240.079C246.53 238.859 244.222 236.857 242.629 234.326C241.035 231.796 240.227 228.849 240.307 225.86C240.387 222.87 241.352 219.971 243.078 217.53C244.805 215.088 247.217 213.213 250.009 212.141C252.801 211.069 255.848 210.849 258.765 211.508C260.705 211.949 262.539 212.767 264.162 213.917C265.786 215.066 267.167 216.524 268.227 218.207C269.287 219.89 270.005 221.766 270.34 223.727C270.675 225.688 270.62 227.695 270.18 229.635Z" fill="#407BFF"/>
<path d="M272.548 213.457L274.392 216.376C274.458 216.481 274.503 216.598 274.524 216.72C274.545 216.843 274.541 216.968 274.514 217.089C274.486 217.21 274.435 217.324 274.363 217.425C274.291 217.526 274.2 217.613 274.095 217.678C273.882 217.812 273.624 217.856 273.378 217.801C273.133 217.745 272.919 217.594 272.784 217.381L270.949 214.471C270.815 214.257 270.771 214 270.827 213.754C270.882 213.508 271.033 213.295 271.246 213.16C271.351 213.093 271.468 213.047 271.59 213.025C271.713 213.004 271.838 213.007 271.959 213.035C272.081 213.063 272.195 213.114 272.296 213.187C272.397 213.259 272.483 213.351 272.548 213.457Z" fill="#263238"/>
<path d="M284.443 205.163C282.317 206.619 280.213 208.102 278.133 209.611C276.044 211.132 273.982 212.679 272.015 214.322C271.778 214.527 271.622 214.811 271.576 215.121C271.529 215.431 271.596 215.747 271.763 216.013C271.93 216.278 272.186 216.475 272.486 216.567C272.786 216.659 273.109 216.641 273.396 216.516C275.738 215.415 278.028 214.217 280.301 213.02C282.573 211.823 284.81 210.529 287.03 209.244C288.924 208.143 290.806 207.019 292.676 205.871C292.803 205.792 292.913 205.689 293 205.568C293.088 205.447 293.15 205.31 293.184 205.165C293.218 205.019 293.223 204.869 293.199 204.721C293.175 204.574 293.122 204.433 293.043 204.306L291.488 201.894C291.408 201.767 291.303 201.658 291.181 201.572C291.058 201.486 290.92 201.425 290.774 201.392C290.628 201.36 290.476 201.356 290.329 201.382C290.181 201.409 290.041 201.464 289.915 201.544C288.079 202.768 286.252 203.93 284.443 205.163Z" fill="#263238"/>
<path d="M294.188 142.838C293.122 148.082 291.986 153.311 290.78 158.526L287.161 174.136C285.982 179.222 284.976 184.379 284.059 189.614L281.314 205.346C281.213 205.95 280.89 206.495 280.409 206.874C279.928 207.253 279.323 207.439 278.713 207.397C278.102 207.354 277.528 207.086 277.105 206.644C276.681 206.202 276.437 205.618 276.42 205.005C276.228 199.543 276.315 194.142 276.621 188.705C276.923 183.237 277.507 177.788 278.369 172.379C279.243 167.03 280.178 161.742 281.21 156.464C282.241 151.185 283.333 145.923 284.548 140.732C284.841 139.462 285.623 138.358 286.724 137.661C287.825 136.963 289.156 136.727 290.43 137.004C291.703 137.281 292.817 138.049 293.528 139.141C294.24 140.233 294.493 141.561 294.232 142.838H294.188Z" fill="#407BFF"/>
<path d="M280.554 203.931C280.334 203.698 280.056 203.528 279.749 203.438C279.442 203.347 279.117 203.339 278.806 203.415L277.39 203.756C277.034 203.84 276.712 204.03 276.467 204.302C276.222 204.574 276.065 204.914 276.018 205.276L275.607 208.432C275.479 209.342 275.671 210.268 276.149 211.054L278.107 214.287C278.357 214.62 278.698 214.874 279.088 215.02C279.478 215.165 279.902 215.196 280.309 215.109L282.346 214.681C282.647 214.616 282.931 214.489 283.181 214.308C283.43 214.126 283.638 213.895 283.792 213.628C283.946 213.361 284.043 213.065 284.075 212.758C284.107 212.452 284.075 212.142 283.98 211.849L283.447 210.206C283.25 207.839 282.226 205.617 280.554 203.931Z" fill="#7F3E3B"/>
<path d="M300.997 139.84C304.178 148.274 293.183 160.309 293.183 160.309L279.26 155.703C279.26 155.703 280.327 144.193 285.16 137.699C291.121 129.649 298.576 133.381 300.997 139.84Z" fill="#263238"/>
</svg>
