<svg width="472" height="472" viewBox="0 0 472 472" fill="none" xmlns="http://www.w3.org/2000/svg">
<path d="M472 360.986H0V361.222H472V360.986Z" fill="#EBEBEB"/>
<path d="M424.706 376.174H393.44V376.411H424.706V376.174Z" fill="#EBEBEB"/>
<path d="M312.672 378.742H304.468V378.978H312.672V378.742Z" fill="#EBEBEB"/>
<path d="M392.496 367.414H374.381V367.65H392.496V367.414Z" fill="#EBEBEB"/>
<path d="M90.2936 369H49.5222V369.236H90.2936V369Z" fill="#EBEBEB"/>
<path d="M104.68 369H98.7046V369.236H104.68V369Z" fill="#EBEBEB"/>
<path d="M212.542 372.984H124.108V373.22H212.542V372.984Z" fill="#EBEBEB"/>
<path d="M223.728 318.883H41.451C40.0231 318.881 38.6545 318.312 37.6457 317.301C36.6368 316.291 36.0702 314.921 36.0702 313.493V57.263C36.0827 55.8433 36.6548 54.4858 37.6622 53.4853C38.6697 52.4849 40.0312 51.9224 41.451 51.92H223.728C225.158 51.92 226.529 52.4879 227.539 53.4987C228.55 54.5096 229.118 55.8806 229.118 57.3102V313.493C229.118 314.923 228.55 316.294 227.539 317.305C226.529 318.315 225.158 318.883 223.728 318.883ZM41.451 52.1088C40.0857 52.1113 38.7771 52.6554 37.8125 53.6218C36.848 54.5881 36.3062 55.8977 36.3062 57.263V313.493C36.3062 314.858 36.848 316.168 37.8125 317.134C38.7771 318.101 40.0857 318.645 41.451 318.647H223.728C225.094 318.645 226.404 318.101 227.37 317.135C228.336 316.169 228.88 314.859 228.882 313.493V57.263C228.88 55.8968 228.336 54.5872 227.37 53.6212C226.404 52.6551 225.094 52.1113 223.728 52.1088H41.451Z" fill="#EBEBEB"/>
<path d="M427.925 318.883H245.638C244.209 318.881 242.84 318.312 241.83 317.302C240.819 316.291 240.251 314.922 240.248 313.493V57.263C240.263 55.8424 240.837 54.4849 241.846 53.4848C242.855 52.4846 244.218 51.9224 245.638 51.92H427.925C429.343 51.9249 430.702 52.4885 431.707 53.4887C432.713 54.4888 433.284 55.8449 433.296 57.263V313.493C433.296 314.919 432.731 316.288 431.724 317.298C430.717 318.308 429.351 318.878 427.925 318.883ZM245.638 52.1088C244.272 52.1113 242.962 52.6551 241.996 53.6212C241.03 54.5872 240.487 55.8968 240.484 57.263V313.493C240.487 314.859 241.03 316.169 241.996 317.135C242.962 318.101 244.272 318.645 245.638 318.647H427.925C429.291 318.645 430.6 318.101 431.566 317.135C432.533 316.169 433.076 314.859 433.079 313.493V57.263C433.076 55.8968 432.533 54.5872 431.566 53.6212C430.6 52.6551 429.291 52.1113 427.925 52.1088H245.638Z" fill="#EBEBEB"/>
<path d="M236 403.617C337.086 403.617 419.032 398.832 419.032 392.931C419.032 387.029 337.086 382.245 236 382.245C134.914 382.245 52.9678 387.029 52.9678 392.931C52.9678 398.832 134.914 403.617 236 403.617Z" fill="#0D5371"/>
<path d="M340.784 134.473C340.782 135.425 340.498 136.354 339.968 137.145C339.438 137.935 338.685 138.551 337.805 138.914C336.926 139.277 335.958 139.371 335.025 139.184C334.091 138.997 333.234 138.538 332.562 137.864C331.89 137.191 331.432 136.333 331.247 135.399C331.062 134.465 331.158 133.498 331.523 132.619C331.887 131.74 332.504 130.988 333.296 130.46C334.087 129.931 335.018 129.649 335.97 129.649C336.603 129.649 337.229 129.774 337.814 130.016C338.399 130.259 338.93 130.614 339.377 131.062C339.824 131.51 340.179 132.042 340.42 132.628C340.662 133.213 340.785 133.84 340.784 134.473Z" fill="#263238"/>
<path d="M337.48 138.834C337.482 139.724 337.22 140.594 336.727 141.334C336.234 142.074 335.532 142.652 334.71 142.993C333.889 143.334 332.985 143.424 332.112 143.251C331.24 143.078 330.438 142.65 329.809 142.021C329.18 141.392 328.752 140.59 328.579 139.718C328.406 138.845 328.496 137.941 328.837 137.12C329.178 136.298 329.756 135.596 330.496 135.103C331.236 134.61 332.106 134.348 332.996 134.35C334.184 134.353 335.323 134.826 336.164 135.666C337.004 136.507 337.477 137.646 337.48 138.834Z" fill="#263238"/>
<path d="M364.667 347.515L360.212 352.518L348.043 342.842L352.499 337.839L364.667 347.515Z" fill="#7F3E3B"/>
<path d="M359.4 352.263L364.403 346.599C364.487 346.504 364.604 346.444 364.73 346.432C364.856 346.42 364.982 346.456 365.083 346.533L369.803 350.224C370.037 350.433 370.179 350.725 370.198 351.038C370.218 351.351 370.113 351.659 369.906 351.895C368.132 353.783 367.188 354.661 364.979 357.125C363.629 358.654 360.145 362.071 358.267 364.176C356.388 366.281 354.378 364.365 354.982 363.308C357.691 358.588 358.814 355.756 358.965 353.358C358.99 352.956 359.142 352.572 359.4 352.263Z" fill="#263238"/>
<path opacity="0.2" d="M352.508 337.839L348.043 342.842L354.321 347.826L358.777 342.823L352.508 337.839Z" fill="black"/>
<path d="M313.096 217.12C313.096 217.12 303.383 269.04 302.996 288.213C302.561 309.264 351.14 348.884 351.14 348.884L358.89 339.359C358.89 339.359 329.314 308.207 322.942 288.732C325.482 266.274 336.961 215.1 336.961 215.1L313.096 217.12Z" fill="#263238"/>
<path opacity="0.3" d="M322.064 251.293C320.261 260.402 321.46 272.184 324 280.916C326.029 267.558 329.664 249.367 332.552 235.5C329.371 235.622 324.321 239.87 322.064 251.293Z" fill="black"/>
<path d="M359.362 339.33L350.866 349.365L346.278 346.967L356.766 336.102L359.362 339.33Z" fill="#407BFF"/>
<path d="M358.72 354.812C359.108 354.351 359.446 353.851 359.73 353.32C359.746 353.295 359.754 353.265 359.754 353.235C359.754 353.205 359.746 353.176 359.73 353.15C359.711 353.128 359.686 353.111 359.657 353.101C359.629 353.091 359.599 353.088 359.57 353.094C359.324 353.16 357.087 353.707 356.738 354.538C356.703 354.632 356.693 354.733 356.707 354.832C356.722 354.931 356.762 355.025 356.823 355.105C356.902 355.235 357.015 355.342 357.149 355.415C357.283 355.488 357.434 355.524 357.587 355.52C358.038 355.43 358.441 355.178 358.72 354.812ZM359.277 353.49C358.654 354.548 358.04 355.18 357.597 355.208C357.496 355.207 357.398 355.179 357.312 355.127C357.226 355.076 357.155 355.003 357.106 354.916C357.074 354.878 357.053 354.833 357.045 354.785C357.037 354.737 357.041 354.688 357.059 354.642C357.191 354.198 358.361 353.745 359.249 353.49H359.277Z" fill="#407BFF"/>
<path d="M359.664 353.349C359.669 353.327 359.669 353.304 359.664 353.283C359.677 353.261 359.685 353.237 359.685 353.212C359.685 353.187 359.677 353.162 359.664 353.141C359.607 353.084 358.267 351.687 357.332 351.753C357.212 351.762 357.094 351.797 356.99 351.858C356.885 351.918 356.796 352.002 356.728 352.103C356.644 352.207 356.598 352.337 356.598 352.471C356.598 352.605 356.644 352.735 356.728 352.839C357.172 353.443 358.88 353.632 359.617 353.396L359.664 353.349ZM357.021 352.225C357.105 352.13 357.224 352.073 357.351 352.065C357.908 352.065 358.767 352.716 359.239 353.16C358.442 353.289 357.625 353.11 356.955 352.659C356.898 352.584 356.851 352.471 356.955 352.282L357.021 352.225Z" fill="#407BFF"/>
<path d="M315.711 165.257C315.523 166.002 315.372 166.559 315.202 167.192C315.032 167.824 314.833 168.41 314.645 169.004C314.254 170.206 313.839 171.396 313.399 172.573C312.512 174.943 311.494 177.263 310.349 179.52C308.024 184.283 304.88 188.6 301.061 192.274C300.01 193.227 298.893 194.104 297.719 194.898C297.417 195.096 296.935 195.361 296.558 195.587C296.18 195.814 295.736 195.965 295.321 196.154C294.906 196.343 294.49 196.446 294.075 196.579L292.848 196.862C289.953 197.335 286.99 197.193 284.153 196.446C281.635 195.84 279.186 194.973 276.847 193.86C275.705 193.331 274.6 192.746 273.515 192.132C272.429 191.519 271.391 190.886 270.295 190.131L272.655 185.685C273.656 186.006 274.779 186.374 275.846 186.685C276.913 186.997 278.027 187.271 279.103 187.544C281.193 188.069 283.32 188.435 285.466 188.64C287.267 188.85 289.092 188.722 290.846 188.262L291.328 188.073C291.46 187.998 291.611 187.941 291.743 187.865L292.083 187.648C292.196 187.554 292.244 187.535 292.423 187.393C293.161 186.812 293.858 186.182 294.509 185.505C297.292 182.396 299.569 178.87 301.259 175.055C302.203 173.101 303.024 171.053 303.817 168.995C304.204 167.966 304.572 166.918 304.912 165.87L305.403 164.303C305.563 163.803 305.733 163.227 305.847 162.831L315.711 165.257Z" fill="#7F3E3B"/>
<path d="M296.586 179.615L307.819 186.582C307.819 186.582 308.188 186.1 308.763 185.269C309.198 184.665 309.764 183.853 310.416 182.909C314.088 177.566 319.299 167.928 318.968 163.454C318.468 156.798 311.473 156.411 304.298 163.888C301.202 167.107 299.88 172.138 298.436 175.31C297.955 176.349 297.558 177.264 297.247 177.972L296.586 179.615Z" fill="#407BFF"/>
<path d="M344.947 384.472H338.245L337.376 368.953H344.079L344.947 384.472Z" fill="#7F3E3B"/>
<path d="M337.895 383.698H345.447C345.509 383.696 345.571 383.705 345.629 383.727C345.688 383.748 345.741 383.781 345.787 383.823C345.832 383.865 345.869 383.916 345.895 383.972C345.921 384.028 345.936 384.089 345.938 384.151L346.306 390.117C346.306 390.43 346.184 390.729 345.965 390.952C345.746 391.174 345.448 391.302 345.136 391.307C342.511 391.307 341.256 391.109 337.943 391.109C335.913 391.109 330.013 391.316 327.2 391.316C324.387 391.316 324.472 388.532 325.661 388.286C331.004 387.153 334.865 385.596 336.763 384.114C337.085 383.855 337.482 383.709 337.895 383.698Z" fill="#263238"/>
<path opacity="0.2" d="M344.079 368.953H337.376L337.829 376.958H344.532L344.079 368.953Z" fill="black"/>
<path d="M326.105 215.676C326.105 215.676 323.273 266.34 325.548 285.428C328.002 306.337 334.988 375.023 334.988 375.023H347.26C347.26 375.023 345.976 306.951 345.457 286.136C344.9 263.546 349.186 213.693 349.186 213.693L326.105 215.676Z" fill="#263238"/>
<path d="M347.703 375.023H334.044L333.289 369.595L348.364 370.445L347.703 375.023Z" fill="#407BFF"/>
<path d="M335.516 384.869C336.118 384.853 336.717 384.77 337.301 384.623C337.332 384.619 337.361 384.605 337.383 384.583C337.405 384.561 337.419 384.532 337.423 384.501C337.428 384.472 337.424 384.442 337.413 384.415C337.401 384.388 337.382 384.366 337.357 384.35C337.14 384.199 335.243 382.896 334.431 383.217C334.338 383.255 334.256 383.315 334.191 383.393C334.127 383.47 334.083 383.562 334.063 383.66C334.018 383.807 334.013 383.963 334.047 384.112C334.082 384.261 334.156 384.399 334.261 384.51C334.62 384.783 335.068 384.911 335.516 384.869ZM336.876 384.397C335.677 384.642 334.79 384.604 334.478 384.293C334.413 384.218 334.368 384.127 334.348 384.029C334.328 383.932 334.334 383.831 334.365 383.736C334.372 383.686 334.392 383.638 334.423 383.598C334.455 383.558 334.497 383.528 334.544 383.509C334.978 383.34 336.064 383.906 336.876 384.397Z" fill="#407BFF"/>
<path d="M337.272 384.633H337.338C337.361 384.621 337.381 384.603 337.396 384.582C337.411 384.561 337.42 384.536 337.423 384.51C337.423 384.425 337.584 382.499 336.904 381.848C336.82 381.761 336.716 381.696 336.601 381.658C336.485 381.62 336.363 381.611 336.243 381.631C336.109 381.631 335.978 381.678 335.875 381.764C335.771 381.851 335.701 381.97 335.677 382.103C335.526 382.83 336.517 384.227 337.187 384.623L337.272 384.633ZM336.328 381.914C336.451 381.915 336.569 381.962 336.659 382.046C337.03 382.692 337.186 383.439 337.102 384.18C336.474 383.671 336.062 382.942 335.951 382.141C335.951 382.056 336.026 381.942 336.253 381.914H336.328Z" fill="#407BFF"/>
<path opacity="0.3" d="M319.129 164.256C316.608 162.887 315.22 167.088 310.803 170.968C308.839 172.686 305.091 183.108 305.658 185.279L307.82 186.619C307.82 186.619 319.752 170.864 319.129 164.256Z" fill="black"/>
<path d="M273.968 186.383L268.53 180.899L265.236 187.507C265.236 187.507 271.164 191.84 272.854 190.339L273.968 186.383Z" fill="#7F3E3B"/>
<path d="M261.63 181.295L260.544 186.516L265.236 187.544L268.53 180.899L261.63 181.295Z" fill="#7F3E3B"/>
<path d="M313.096 217.12L348.808 214.052C348.808 210.842 347.156 200.525 346.571 187.261C346.066 177.438 346.417 167.59 347.619 157.827C347.713 157.091 347.817 156.364 347.93 155.628C347.93 155.628 346.089 155.42 343.456 155.26C341.275 155.128 338.547 155.043 335.904 155.137C330.823 155.287 325.755 155.725 320.724 156.449C318.411 156.864 316.164 157.45 314.38 157.95C312.096 158.62 310.755 159.14 310.755 159.14C310.755 159.14 303.675 180.115 313.096 217.12Z" fill="#407BFF"/>
<path opacity="0.3" d="M346.571 187.29C346.071 177.463 346.421 167.612 347.619 157.846C345.211 157.846 341.152 158.432 340.803 162.349C340.435 166.55 342.191 176.216 346.571 187.29Z" fill="black"/>
<path d="M350.356 159.744C351.159 160.773 351.838 161.679 352.518 162.67C353.198 163.661 353.849 164.624 354.5 165.615C355.784 167.607 357.002 169.646 358.135 171.742C360.511 176.001 362.41 180.509 363.799 185.184L363.931 185.628L363.997 185.855L364.091 186.223C364.209 186.723 364.291 187.231 364.337 187.743C364.4 188.595 364.381 189.452 364.28 190.301C364.103 191.704 363.787 193.086 363.336 194.426C362.521 196.781 361.504 199.062 360.296 201.242C358.009 205.374 355.345 209.286 352.339 212.929L348.119 210.182C350.007 206.188 351.81 202.063 353.292 198.032C354.032 196.108 354.631 194.133 355.086 192.123C355.277 191.286 355.385 190.432 355.407 189.574C355.413 189.295 355.388 189.016 355.331 188.743C355.331 188.658 355.284 188.592 355.265 188.583L355.199 188.404L355.057 188.045C354.314 186.114 353.47 184.223 352.527 182.381C351.583 180.493 350.517 178.605 349.422 176.764C348.327 174.923 347.156 173.082 345.967 171.26C344.777 169.439 343.503 167.607 342.342 165.965L350.356 159.744Z" fill="#7F3E3B"/>
<path d="M340.104 168.57C342.172 173.056 344.498 177.418 347.071 181.635C347.628 182.579 348.147 183.429 348.572 184.108C349.308 185.307 349.771 185.996 349.771 185.996L362.656 177.34L362.043 175.858C361.75 175.159 361.363 174.244 360.891 173.186C358.059 166.956 352.499 155.892 347.93 155.618C341.096 155.25 336.678 160.707 340.104 168.57Z" fill="#407BFF"/>
<path d="M334.101 138.164L330.325 141.883L325.189 146.952C325.416 147.674 325.599 148.408 325.737 149.152C326.294 152.126 325.737 154.92 321.423 156.345C321.423 156.345 316.032 161.188 323.811 160.895C326.202 160.847 328.559 160.313 330.737 159.324C332.915 158.336 334.869 156.915 336.479 155.146C332.892 152.173 333.393 143.148 334.101 138.164Z" fill="#7F3E3B"/>
<path d="M335.271 153.343C332.563 156.776 328.941 159.374 324.821 160.839C325.874 161.066 326.862 161.529 327.71 162.193C328.559 162.857 329.246 163.704 329.72 164.671C329.72 164.671 337.14 161.245 337.414 155.118C336.761 154.456 336.043 153.861 335.271 153.343Z" fill="white"/>
<path d="M322.008 156.034C322.008 156.034 319.959 159.319 323.556 160.905C322.091 161.771 320.955 163.099 320.328 164.681C320.328 164.681 317.335 160.159 319.61 156.534C320.96 156.175 322.008 156.034 322.008 156.034Z" fill="white"/>
<path opacity="0.2" d="M325.189 146.952C325.416 147.674 325.599 148.408 325.737 149.152C327.766 148.557 330.334 146.131 330.457 143.998C330.497 143.291 330.459 142.582 330.343 141.883L325.189 146.952Z" fill="black"/>
<path d="M324.993 128.06C328.727 124.325 328.727 118.27 324.993 114.536C321.258 110.801 315.203 110.801 311.469 114.536C307.734 118.27 307.734 124.325 311.469 128.06C315.203 131.794 321.258 131.794 324.993 128.06Z" fill="#263238"/>
<path d="M326.171 127.761C329.935 127.761 332.987 124.709 332.987 120.945C332.987 117.181 329.935 114.13 326.171 114.13C322.407 114.13 319.355 117.181 319.355 120.945C319.355 124.709 322.407 127.761 326.171 127.761Z" fill="#263238"/>
<path d="M337.744 123.305C337.744 124.358 337.432 125.388 336.847 126.263C336.262 127.139 335.431 127.821 334.458 128.224C333.485 128.627 332.414 128.733 331.381 128.527C330.349 128.322 329.4 127.815 328.655 127.07C327.911 126.325 327.404 125.377 327.198 124.344C326.993 123.311 327.098 122.241 327.501 121.268C327.904 120.295 328.587 119.463 329.462 118.878C330.338 118.293 331.367 117.981 332.42 117.981C333.832 117.981 335.186 118.542 336.185 119.541C337.183 120.539 337.744 121.893 337.744 123.305Z" fill="#263238"/>
<path d="M323.556 130.13C323.554 131.183 323.24 132.211 322.654 133.086C322.068 133.96 321.236 134.641 320.263 135.043C319.29 135.444 318.22 135.548 317.187 135.342C316.155 135.135 315.207 134.627 314.464 133.882C313.72 133.137 313.214 132.189 313.009 131.156C312.805 130.124 312.911 129.054 313.314 128.081C313.717 127.109 314.4 126.278 315.275 125.693C316.15 125.109 317.179 124.797 318.232 124.797C318.932 124.797 319.625 124.935 320.272 125.203C320.918 125.471 321.505 125.864 322 126.36C322.494 126.855 322.886 127.443 323.153 128.09C323.42 128.737 323.557 129.43 323.556 130.13Z" fill="#263238"/>
<path d="M336.479 133.821C339.305 133.821 341.596 131.531 341.596 128.705C341.596 125.879 339.305 123.588 336.479 123.588C333.654 123.588 331.363 125.879 331.363 128.705C331.363 131.531 333.654 133.821 336.479 133.821Z" fill="#263238"/>
<path d="M335.167 130.98C334.318 137.588 334.157 141.506 330.57 144.791C329.419 145.875 327.993 146.623 326.447 146.955C324.901 147.286 323.294 147.189 321.799 146.673C320.305 146.156 318.98 145.241 317.968 144.026C316.957 142.81 316.297 141.341 316.061 139.778C315.032 133.774 316.608 123.966 323.282 121.54C324.713 120.977 326.267 120.801 327.787 121.028C329.308 121.255 330.742 121.878 331.946 122.834C333.149 123.791 334.081 125.047 334.646 126.476C335.212 127.906 335.391 129.459 335.167 130.98Z" fill="#7F3E3B"/>
<path d="M334.809 135.776C337.285 135.776 339.292 133.768 339.292 131.292C339.292 128.815 337.285 126.808 334.809 126.808C332.332 126.808 330.325 128.815 330.325 131.292C330.325 133.768 332.332 135.776 334.809 135.776Z" fill="#263238"/>
<path d="M327.049 129.054C327.941 129.612 328.935 129.987 329.972 130.16C331.01 130.333 332.072 130.3 333.097 130.063C334.122 129.825 335.09 129.388 335.945 128.776C336.801 128.164 337.528 127.389 338.084 126.496L324.509 118C323.95 118.892 323.571 119.886 323.396 120.925C323.22 121.964 323.252 123.027 323.487 124.054C323.723 125.08 324.159 126.05 324.77 126.908C325.381 127.766 326.156 128.496 327.049 129.054Z" fill="#263238"/>
<path d="M317.628 125.958C319.582 126.567 321.698 126.374 323.51 125.424C325.323 124.473 326.684 122.842 327.294 120.889L312.568 116.291C312.265 117.258 312.156 118.275 312.246 119.285C312.337 120.294 312.625 121.275 313.095 122.173C313.565 123.071 314.207 123.867 314.985 124.517C315.762 125.166 316.661 125.656 317.628 125.958Z" fill="#263238"/>
<path d="M337.253 137.635C336.312 139.002 334.929 140.002 333.336 140.467C331.325 140.986 330.693 139.136 331.58 137.21C332.373 135.483 334.412 133.123 336.253 133.434C338.094 133.746 338.443 135.936 337.253 137.635Z" fill="#7F3E3B"/>
<path d="M324.981 132.509C324.981 133.047 324.632 133.453 324.273 133.453C323.915 133.453 323.66 133 323.698 132.453C323.735 131.905 324.056 131.509 324.406 131.509C324.755 131.509 325.019 131.971 324.981 132.509Z" fill="#263238"/>
<path d="M318.874 132.311C318.874 132.849 318.515 133.255 318.166 133.255C317.816 133.255 317.552 132.792 317.59 132.254C317.628 131.716 317.949 131.31 318.298 131.31C318.647 131.31 318.912 131.773 318.874 132.311Z" fill="#263238"/>
<path d="M320.799 132.641C320.037 134.273 319.063 135.796 317.901 137.173C318.258 137.449 318.672 137.644 319.112 137.741C319.553 137.839 320.01 137.839 320.45 137.739L320.799 132.641Z" fill="#630F0F"/>
<path d="M322.565 139.268C323.189 139.217 323.797 139.042 324.353 138.754C324.909 138.465 325.402 138.069 325.803 137.588C325.817 137.574 325.829 137.557 325.837 137.538C325.845 137.52 325.849 137.5 325.849 137.479C325.849 137.459 325.845 137.439 325.837 137.42C325.829 137.402 325.817 137.385 325.803 137.371C325.773 137.341 325.732 137.324 325.689 137.324C325.647 137.324 325.606 137.341 325.576 137.371C325.133 137.888 324.578 138.297 323.953 138.567C323.328 138.836 322.65 138.96 321.97 138.928C321.935 138.937 321.904 138.957 321.882 138.985C321.86 139.014 321.848 139.048 321.848 139.084C321.848 139.12 321.86 139.155 321.882 139.183C321.904 139.211 321.935 139.231 321.97 139.24C322.168 139.262 322.366 139.271 322.565 139.268Z" fill="#263238"/>
<path d="M327.002 130.602C327.055 130.594 327.106 130.574 327.153 130.546C327.22 130.496 327.267 130.423 327.283 130.341C327.299 130.258 327.282 130.173 327.238 130.102C326.965 129.684 326.595 129.338 326.159 129.095C325.723 128.851 325.235 128.717 324.736 128.705C324.69 128.697 324.643 128.699 324.597 128.711C324.552 128.724 324.51 128.745 324.475 128.776C324.439 128.806 324.41 128.843 324.39 128.886C324.37 128.928 324.36 128.974 324.36 129.021C324.36 129.068 324.37 129.114 324.39 129.157C324.41 129.199 324.439 129.237 324.475 129.267C324.51 129.297 324.552 129.319 324.597 129.331C324.643 129.343 324.69 129.345 324.736 129.337C325.128 129.352 325.512 129.462 325.852 129.657C326.192 129.853 326.48 130.129 326.69 130.461C326.724 130.511 326.771 130.55 326.826 130.575C326.881 130.6 326.942 130.61 327.002 130.602Z" fill="#263238"/>
<path d="M316.391 130.121C316.442 130.115 316.49 130.097 316.533 130.069C316.575 130.042 316.611 130.004 316.636 129.96C316.826 129.602 317.094 129.292 317.421 129.053C317.748 128.814 318.126 128.653 318.524 128.582C318.608 128.573 318.685 128.531 318.737 128.465C318.79 128.4 318.816 128.317 318.808 128.233C318.804 128.192 318.792 128.152 318.773 128.116C318.754 128.079 318.728 128.047 318.697 128.021C318.665 127.994 318.629 127.974 318.589 127.962C318.55 127.95 318.509 127.946 318.468 127.95C317.965 128.03 317.487 128.225 317.071 128.52C316.655 128.815 316.313 129.201 316.07 129.649C316.029 129.723 316.019 129.81 316.042 129.891C316.065 129.973 316.119 130.042 316.193 130.083C316.251 130.122 316.323 130.135 316.391 130.121Z" fill="#263238"/>
<path d="M349.743 208.548L342.993 207.963L347.071 215.364C347.071 215.364 353.132 214.807 352.584 211.701L349.743 208.548Z" fill="#7F3E3B"/>
<path d="M338.367 212.258L342.021 218.206L347.062 215.364L342.993 207.963L338.367 212.258Z" fill="#7F3E3B"/>
<path d="M223.332 148.406C217.035 159.914 220.018 175.527 229.486 181.446C239.408 187.667 258.411 175.782 263.857 170.25C255.22 170.439 253.134 162.934 252.775 155.609C252.36 147.179 248.319 138.985 242.995 141.789C234.697 135.936 227.551 140.713 223.332 148.406Z" fill="#263238"/>
<path d="M259.845 168.598C258.286 168.664 256.757 168.146 255.56 167.145C253.813 165.596 253.096 162.84 253.492 159.187C254.37 150.964 251.17 143.856 247.706 141.978C247.021 141.574 246.225 141.402 245.434 141.485C244.644 141.568 243.902 141.903 243.316 142.44L243.023 142.072C243.677 141.473 244.507 141.1 245.389 141.008C246.271 140.916 247.159 141.11 247.923 141.562C251.529 143.507 254.861 150.823 253.964 159.234C253.587 162.736 254.247 165.342 255.852 166.786C257.325 168.089 259.553 168.447 262.309 167.815L262.413 168.277C261.572 168.479 260.711 168.586 259.845 168.598Z" fill="#263238"/>
<path d="M223.379 186.062C222.167 187.727 220.865 189.325 219.48 190.848C218.105 192.376 216.639 193.82 215.09 195.172C213.503 196.579 211.794 197.842 209.983 198.948C209.029 199.532 208.032 200.044 207 200.477C205.906 200.963 204.759 201.321 203.583 201.544C202.311 201.811 201.003 201.868 199.713 201.714C198.433 201.551 197.189 201.177 196.031 200.609C194.034 199.603 192.211 198.284 190.631 196.701C187.747 193.814 185.307 190.515 183.391 186.912L186.298 185.024C188.693 187.79 191.348 190.319 194.228 192.576C195.514 193.585 196.939 194.405 198.457 195.012C199.061 195.246 199.698 195.38 200.345 195.408C200.983 195.442 201.622 195.365 202.233 195.181C203.719 194.759 205.124 194.089 206.387 193.199C207.829 192.236 209.193 191.159 210.465 189.98C211.777 188.781 213.014 187.46 214.241 186.119C215.468 184.779 216.657 183.287 217.686 181.975L223.379 186.062Z" fill="#FFC3BD"/>
<path d="M224.209 178.322C217.922 178.161 216.082 182.098 216.082 182.098L222.482 193.671C224.465 191.789 225.99 189.477 226.938 186.912C228.089 183.079 228.448 178.416 224.209 178.322Z" fill="#407BFF"/>
<path d="M186.676 185.581L184.382 180.049L180.304 186.062C180.304 186.062 182.683 188.507 185.515 188.186L186.676 185.581Z" fill="#FFC3BD"/>
<path d="M179.407 176.783L177.189 181.805L180.304 186.062L184.382 180.049L179.407 176.783Z" fill="#FFC3BD"/>
<path d="M259.506 384.463L252.662 385.114L250.575 369.293L257.419 368.641L259.506 384.463Z" fill="#FFC3BD"/>
<path d="M314.55 367.962L309.302 372.087L300.277 358.314L305.535 354.179L314.55 367.962Z" fill="#FFC3BD"/>
<path d="M307.14 369.614L312.2 363.657C312.283 363.552 312.403 363.482 312.535 363.459C312.667 363.437 312.803 363.463 312.917 363.534L318.128 366.735C318.255 366.824 318.362 366.938 318.441 367.071C318.521 367.204 318.573 367.352 318.592 367.505C318.612 367.659 318.599 367.815 318.555 367.964C318.511 368.112 318.436 368.25 318.336 368.368C316.533 370.416 315.56 371.313 313.332 373.928C311.964 375.542 309.169 379.299 307.281 381.527C305.393 383.755 303.118 382.056 303.713 380.961C306.366 376.071 306.668 373.135 306.706 370.765C306.707 370.342 306.862 369.933 307.14 369.614Z" fill="#263238"/>
<path d="M252.048 383.056H260.204C260.352 383.059 260.495 383.109 260.613 383.199C260.73 383.289 260.815 383.414 260.855 383.557L262.63 390.014C262.673 390.167 262.679 390.327 262.649 390.483C262.618 390.639 262.552 390.786 262.455 390.911C262.357 391.037 262.232 391.138 262.089 391.207C261.946 391.276 261.788 391.31 261.63 391.307C258.798 391.307 257.391 391.09 253.794 391.09C251.585 391.09 245.884 391.316 242.835 391.316C239.785 391.316 239.228 388.305 240.456 388.031C245.988 386.804 249.178 385.114 250.84 383.509C251.167 383.205 251.601 383.042 252.048 383.056Z" fill="#263238"/>
<path opacity="0.2" d="M250.575 369.293L251.652 377.449H258.59L257.429 368.641L250.575 369.293Z" fill="black"/>
<path opacity="0.2" d="M305.535 354.189L300.277 358.314L304.931 365.413L310.189 361.288L305.535 354.189Z" fill="black"/>
<path d="M219.367 179.247C219.367 179.247 216.327 181.021 229.807 219.272L257.382 213.825C254.946 202.781 253.719 195.889 255.04 172.006C251.034 171.979 247.03 172.241 243.061 172.79C238.832 173.314 234.645 174.14 230.534 175.263C225.248 176.811 219.367 179.247 219.367 179.247Z" fill="#407BFF"/>
<path d="M245.931 172.431C244.987 172.525 244.043 172.648 243.099 172.79C238.87 173.314 234.683 174.14 230.572 175.263C229.458 175.593 228.306 175.962 227.202 176.33C226.73 178.916 227.117 183.259 231.837 189.083L233.914 191.651L236.132 189.206C243.373 181.248 246.62 175.697 245.931 172.431Z" fill="white"/>
<path d="M239.342 159.045C239.257 163.199 239.767 170.675 243.061 172.79C243.061 172.79 244.845 175.395 233.999 187.299C227.561 179.351 230.534 175.263 230.534 175.263C234.839 173.309 234.14 170.024 232.809 167.069L239.342 159.045Z" fill="#FFC3BD"/>
<path opacity="0.2" d="M238.634 159.914C238.996 162.317 238.838 164.77 238.171 167.107C237.709 168.721 235.83 169.788 233.8 170.335C233.656 169.205 233.337 168.103 232.856 167.069L238.634 159.914Z" fill="black"/>
<path d="M245.516 154.637C243.628 161.245 242.967 164.077 238.832 166.805C232.63 170.958 224.965 167.381 224.851 160.404C224.757 154.117 227.863 144.356 234.98 143.035C236.53 142.715 238.136 142.804 239.64 143.294C241.145 143.784 242.495 144.658 243.559 145.829C244.623 147 245.363 148.429 245.706 149.973C246.049 151.518 245.983 153.125 245.516 154.637Z" fill="#FFC3BD"/>
<path d="M243.779 144.432C247.007 147.311 224.191 149.567 226.248 146.065C228.306 142.563 238.322 139.552 243.779 144.432Z" fill="#263238"/>
<path d="M245.204 158.356C238.36 160.244 237.709 141.364 241.57 142.667C245.431 143.969 252.246 156.411 245.204 158.356Z" fill="#263238"/>
<path d="M246.771 159.819C246.343 161.082 245.443 162.131 244.26 162.746C242.674 163.539 241.579 162.236 241.758 160.584C241.919 159.102 242.929 156.893 244.59 156.808C244.962 156.782 245.333 156.851 245.67 157.009C246.007 157.166 246.299 157.407 246.517 157.708C246.735 158.009 246.873 158.361 246.917 158.731C246.962 159.1 246.911 159.475 246.771 159.819Z" fill="#FFC3BD"/>
<path d="M229.807 219.272C229.807 219.272 230.884 284.474 234.763 304.997C238.813 326.36 248.376 375.079 248.376 375.079L261.271 374.456C261.271 374.456 254.512 317.533 253.379 301.023C251.812 278.272 250 215.279 250 215.279L229.807 219.272Z" fill="#407BFF"/>
<path opacity="0.4" d="M229.807 219.272C229.807 219.272 230.884 284.474 234.763 304.997C238.813 326.36 248.376 375.079 248.376 375.079L261.271 374.456C261.271 374.456 254.512 317.533 253.379 301.023C251.812 278.272 250 215.279 250 215.279L229.807 219.272Z" fill="white"/>
<path opacity="0.5" d="M250.519 232.3C248.47 230.94 245.204 223.87 243.911 238.294C242.967 248.782 248.546 261.573 251.67 266.133C251.246 254.144 250.83 241.815 250.519 232.3Z" fill="#407BFF"/>
<path d="M262.168 375.08L247.47 375.788L245.733 370.416L261.667 369.17L262.168 375.08Z" fill="#407BFF"/>
<path d="M237.086 217.828C237.086 217.828 254.701 275.412 265.264 299.956C273.76 319.78 301.976 364.507 301.976 364.507L309.708 358.843C309.708 358.843 290.091 309.755 284.22 296.34C265.34 253.322 268.408 224.285 257.41 213.816L237.086 217.828Z" fill="#407BFF"/>
<path opacity="0.4" d="M237.086 217.828C237.086 217.828 254.701 275.412 265.264 299.956C273.76 319.78 301.976 364.507 301.976 364.507L309.708 358.843C309.708 358.843 290.091 309.755 284.22 296.34C265.34 253.322 268.408 224.285 257.41 213.816L237.086 217.828Z" fill="white"/>
<path d="M310.519 358.597L301.853 365.224L297.992 362.015L309.283 353.896L310.519 358.597Z" fill="#407BFF"/>
<path d="M257.514 212.136L259.185 214.345C259.317 214.515 259.128 214.751 258.807 214.817L229.883 220.528C229.637 220.528 229.411 220.528 229.364 220.339L228.684 217.941C228.637 217.771 228.826 217.592 229.099 217.535L257.023 212.022C257.108 212 257.197 211.998 257.282 212.018C257.368 212.038 257.447 212.078 257.514 212.136Z" fill="white"/>
<path d="M254.304 215.978L255.059 215.827C255.201 215.827 255.305 215.704 255.277 215.61L254.333 212.494C254.333 212.409 254.163 212.353 254.021 212.381L253.266 212.532C253.124 212.532 253.02 212.664 253.049 212.749L253.993 215.864C254.012 215.959 254.163 216.006 254.304 215.978Z" fill="#407BFF"/>
<path opacity="0.4" d="M254.304 215.978L255.059 215.827C255.201 215.827 255.305 215.704 255.277 215.61L254.333 212.494C254.333 212.409 254.163 212.353 254.021 212.381L253.266 212.532C253.124 212.532 253.02 212.664 253.049 212.749L253.993 215.864C254.012 215.959 254.163 216.006 254.304 215.978Z" fill="black"/>
<path d="M232.035 220.377L232.781 220.226C232.932 220.226 233.026 220.103 232.998 220.009L232.054 216.893C232.054 216.799 231.884 216.752 231.733 216.78L230.987 216.931C230.836 216.931 230.732 217.054 230.761 217.148L231.705 220.264C231.743 220.348 231.884 220.405 232.035 220.377Z" fill="#407BFF"/>
<path opacity="0.4" d="M232.035 220.377L232.781 220.226C232.932 220.226 233.026 220.103 232.998 220.009L232.054 216.893C232.054 216.799 231.884 216.752 231.733 216.78L230.987 216.931C230.836 216.931 230.732 217.054 230.761 217.148L231.705 220.264C231.743 220.348 231.884 220.405 232.035 220.377Z" fill="black"/>
<path d="M243.174 218.177L243.92 218.026C244.071 218.026 244.166 217.904 244.137 217.809L243.193 214.694C243.193 214.609 243.014 214.552 242.872 214.581L242.117 214.732C241.976 214.732 241.872 214.864 241.9 214.949L242.844 218.064C242.882 218.158 243.023 218.206 243.174 218.177Z" fill="#407BFF"/>
<path opacity="0.4" d="M243.174 218.177L243.92 218.026C244.071 218.026 244.166 217.904 244.137 217.809L243.193 214.694C243.193 214.609 243.014 214.552 242.872 214.581L242.117 214.732C241.976 214.732 241.872 214.864 241.9 214.949L242.844 218.064C242.882 218.158 243.023 218.206 243.174 218.177Z" fill="black"/>
<path d="M233.744 154.391C233.631 154.939 233.244 155.335 232.885 155.25C232.526 155.165 232.337 154.684 232.46 154.136C232.583 153.589 232.97 153.192 233.319 153.287C233.668 153.381 233.867 153.872 233.744 154.391Z" fill="#263238"/>
<path d="M227.608 153.173C227.495 153.721 227.108 154.117 226.749 154.032C226.39 153.948 226.201 153.457 226.324 152.919C226.447 152.38 226.834 151.975 227.183 152.06C227.532 152.144 227.731 152.626 227.608 153.173Z" fill="#263238"/>
<path d="M227.334 152.126L226.116 151.484C226.116 151.484 226.56 152.635 227.334 152.126Z" fill="#263238"/>
<path d="M230.27 154.523C229.507 155.667 228.596 156.705 227.561 157.61C227.8 157.868 228.093 158.068 228.42 158.197C228.747 158.327 229.098 158.381 229.449 158.356L230.27 154.523Z" fill="#ED847E"/>
<path d="M230.789 160.848C230.765 160.83 230.746 160.805 230.736 160.777C230.726 160.748 230.725 160.717 230.732 160.688C230.736 160.666 230.744 160.646 230.755 160.628C230.766 160.61 230.781 160.594 230.799 160.582C230.817 160.569 230.836 160.561 230.857 160.556C230.878 160.552 230.9 160.551 230.921 160.556C231.597 160.706 232.299 160.7 232.971 160.536C233.644 160.372 234.27 160.056 234.801 159.612C234.816 159.595 234.833 159.582 234.853 159.573C234.873 159.563 234.894 159.558 234.916 159.558C234.938 159.557 234.96 159.561 234.98 159.569C235.001 159.577 235.019 159.589 235.035 159.605C235.05 159.62 235.062 159.639 235.07 159.659C235.078 159.679 235.082 159.701 235.081 159.723C235.081 159.745 235.076 159.766 235.066 159.786C235.057 159.806 235.044 159.824 235.028 159.838C234.468 160.336 233.797 160.693 233.071 160.88C232.346 161.067 231.586 161.079 230.855 160.914L230.789 160.848Z" fill="#263238"/>
<path d="M237.794 152.126C237.746 152.094 237.708 152.052 237.68 152.003C237.52 151.631 237.272 151.303 236.958 151.047C236.644 150.791 236.274 150.613 235.877 150.53C235.835 150.524 235.794 150.51 235.757 150.489C235.721 150.467 235.688 150.438 235.663 150.404C235.637 150.369 235.619 150.33 235.609 150.289C235.599 150.247 235.597 150.204 235.604 150.162C235.618 150.078 235.664 150.002 235.732 149.951C235.801 149.9 235.887 149.877 235.972 149.888C236.478 149.978 236.953 150.192 237.356 150.512C237.758 150.832 238.074 151.247 238.275 151.72C238.311 151.799 238.314 151.888 238.284 151.97C238.254 152.051 238.193 152.117 238.115 152.154C238.063 152.178 238.007 152.188 237.95 152.183C237.894 152.178 237.84 152.158 237.794 152.126Z" fill="#263238"/>
<path d="M226.56 149.832H226.513C226.452 149.77 226.418 149.687 226.418 149.6C226.418 149.514 226.452 149.431 226.513 149.369C226.878 149.002 227.325 148.725 227.817 148.561C228.309 148.397 228.832 148.351 229.345 148.425C229.428 148.445 229.5 148.497 229.546 148.569C229.591 148.641 229.607 148.728 229.59 148.812C229.57 148.898 229.517 148.972 229.443 149.02C229.369 149.067 229.28 149.084 229.194 149.067C228.785 149.014 228.369 149.058 227.98 149.196C227.592 149.334 227.241 149.561 226.956 149.86C226.896 149.899 226.825 149.917 226.753 149.912C226.682 149.907 226.614 149.879 226.56 149.832Z" fill="#263238"/>
<path d="M256.23 174.961C257.316 175.688 258.193 176.349 259.128 177.085C260.063 177.821 260.94 178.558 261.818 179.332C263.57 180.887 265.234 182.538 266.803 184.278C268.401 186.036 269.862 187.914 271.173 189.895C272.531 191.923 273.673 194.087 274.581 196.352L274.912 197.173L274.827 197.862C274.588 199.892 274.047 201.874 273.222 203.744C272.422 205.566 271.377 207.272 270.116 208.813C268.891 210.293 267.515 211.641 266.01 212.834C265.266 213.414 264.495 213.956 263.697 214.458C262.881 214.978 262.03 215.438 261.148 215.836L259.458 212.787C260.015 212.343 260.686 211.786 261.261 211.239C261.837 210.691 262.423 210.097 262.961 209.511C264.031 208.353 264.98 207.088 265.793 205.735C266.583 204.443 267.217 203.062 267.681 201.62C268.129 200.232 268.389 198.791 268.455 197.334L268.691 198.844C266.868 195.212 264.488 191.887 261.639 188.989C260.214 187.478 258.675 186.053 257.098 184.665C256.305 183.976 255.494 183.306 254.682 182.645C253.87 181.984 252.992 181.333 252.246 180.804L256.23 174.961Z" fill="#FFC3BD"/>
<path d="M261.743 212.4L256.759 212.948L259.156 218.489C259.156 218.489 262.696 217.205 263.612 214.467L261.743 212.4Z" fill="#FFC3BD"/>
<path d="M252.237 214.241L253.757 218.696L259.156 218.442L256.759 212.9L252.237 214.241Z" fill="#FFC3BD"/>
<path d="M255.04 172.006C257.948 172.289 259.496 175.357 259.496 175.357L253.672 186.685C253.672 186.685 249.367 183.58 249.896 179.813C250.453 175.914 251.718 171.676 255.04 172.006Z" fill="#407BFF"/>
<path d="M304.733 372.804C304.661 372.755 304.597 372.694 304.544 372.625C304.473 372.557 304.423 372.471 304.398 372.376C304.373 372.281 304.375 372.181 304.402 372.087C304.657 371.237 307.045 370.492 307.319 370.407C307.349 370.397 307.381 370.397 307.411 370.405C307.441 370.413 307.469 370.43 307.489 370.454C307.505 370.481 307.513 370.512 307.513 370.544C307.513 370.575 307.505 370.606 307.489 370.633C307.064 371.455 306.224 372.852 305.356 372.974C305.134 372.998 304.912 372.937 304.733 372.804ZM307.027 370.841C306.083 371.171 304.855 371.728 304.723 372.172C304.709 372.213 304.708 372.258 304.72 372.3C304.732 372.342 304.756 372.38 304.789 372.408C304.852 372.492 304.935 372.558 305.031 372.6C305.127 372.641 305.233 372.656 305.337 372.644C305.856 372.578 306.422 371.936 307.027 370.841Z" fill="#407BFF"/>
<path d="M304.421 370.52C304.367 370.483 304.32 370.439 304.28 370.388C304.197 370.288 304.153 370.163 304.153 370.034C304.153 369.905 304.197 369.78 304.28 369.68C304.35 369.576 304.441 369.488 304.546 369.42C304.652 369.352 304.77 369.305 304.893 369.283C305.894 369.132 307.395 370.378 307.461 370.435C307.483 370.453 307.5 370.476 307.509 370.503C307.519 370.529 307.522 370.558 307.517 370.586C307.511 370.615 307.497 370.641 307.477 370.662C307.457 370.684 307.432 370.7 307.404 370.709C306.42 371.008 305.36 370.941 304.421 370.52ZM306.97 370.463C306.403 369.973 305.696 369.673 304.95 369.604C304.872 369.616 304.797 369.644 304.73 369.686C304.664 369.728 304.607 369.784 304.563 369.85C304.44 370.029 304.487 370.124 304.563 370.18C304.855 370.558 306.215 370.662 307.036 370.492L306.97 370.463Z" fill="#407BFF"/>
<path d="M248.423 384.406C247.865 384.447 247.308 384.315 246.828 384.029C246.702 383.942 246.597 383.828 246.52 383.696C246.444 383.564 246.397 383.416 246.384 383.264C246.379 383.179 246.395 383.093 246.431 383.016C246.467 382.938 246.523 382.871 246.592 382.82C247.337 382.32 250.113 383.585 250.66 383.84C250.691 383.853 250.716 383.875 250.735 383.902C250.753 383.93 250.762 383.962 250.762 383.996C250.762 384.029 250.753 384.061 250.735 384.089C250.716 384.116 250.691 384.138 250.66 384.151C249.925 384.314 249.176 384.399 248.423 384.406ZM247.12 383C247.012 382.991 246.904 383.014 246.809 383.066C246.809 383.066 246.733 383.122 246.743 383.226C246.744 383.332 246.771 383.436 246.82 383.529C246.869 383.623 246.94 383.703 247.026 383.764C247.507 384.123 248.631 384.17 250.094 383.906C249.155 383.452 248.152 383.147 247.12 383Z" fill="#407BFF"/>
<path d="M250.623 384.123H250.556C249.612 383.745 247.781 382.235 247.885 381.489C247.885 381.319 248.027 381.102 248.442 381.055C250.056 380.866 250.755 383.812 250.783 383.934C250.789 383.964 250.786 383.994 250.776 384.022C250.766 384.05 250.749 384.075 250.726 384.095C250.697 384.117 250.66 384.128 250.623 384.123ZM248.593 381.376H248.48C248.31 381.376 248.215 381.452 248.206 381.527C248.149 381.98 249.433 383.151 250.368 383.67C250.16 382.952 249.565 381.376 248.593 381.376Z" fill="#407BFF"/>
<path d="M233.47 153.343L232.252 152.711C232.252 152.711 232.696 153.872 233.47 153.343Z" fill="#263238"/>
<path d="M157.931 384.284L150.889 384.595L150.776 368.037L157.818 367.726L157.931 384.284Z" fill="#FF8B7B"/>
<path d="M150.776 383.17L158.753 383.273C158.886 383.271 159.015 383.321 159.112 383.413C159.21 383.505 159.267 383.631 159.272 383.764L159.574 390.07C159.574 390.235 159.541 390.397 159.478 390.549C159.415 390.701 159.322 390.839 159.205 390.955C159.089 391.071 158.95 391.162 158.798 391.224C158.646 391.286 158.483 391.318 158.318 391.316C155.543 391.231 154.221 391.052 150.719 391.014C148.557 391.014 143.375 391.014 140.401 391.014C137.428 391.014 137.569 388.031 138.806 387.786C144.47 386.662 147.528 385.171 149.548 383.623C149.896 383.339 150.328 383.18 150.776 383.17Z" fill="#263238"/>
<path opacity="0.2" d="M157.818 367.735L150.776 368.037L150.842 376.571L157.884 376.675L157.818 367.735Z" fill="black"/>
<path d="M144.309 218.442C144.309 218.442 141.005 262.866 140.533 283.209C140.033 305.488 148.236 372.483 148.236 372.483L160.508 373.182C160.508 373.182 158.724 308.764 161.235 286.872C163.963 263.102 169.505 216.176 169.505 216.176L144.309 218.442Z" fill="#263238"/>
<path opacity="0.3" d="M161.103 234.254C158.677 243.93 160.792 259.005 163.321 269.323C164.936 255.484 166.776 239.918 168.041 229.232C165.313 228.722 162.217 229.788 161.103 234.254Z" fill="black"/>
<path d="M161.481 374.589L147.566 374.768L146.301 369.453L162.831 369.123L161.481 374.589Z" fill="#263238"/>
<path d="M148.208 384.369C148.844 384.362 149.477 384.286 150.096 384.142C150.128 384.136 150.157 384.12 150.179 384.096C150.201 384.072 150.215 384.042 150.219 384.01C150.227 383.979 150.225 383.947 150.213 383.918C150.201 383.889 150.18 383.865 150.153 383.849C149.935 383.689 147.944 382.292 147.066 382.613C146.967 382.653 146.88 382.717 146.813 382.8C146.745 382.882 146.699 382.98 146.679 383.085C146.633 383.239 146.627 383.402 146.661 383.559C146.696 383.716 146.77 383.861 146.877 383.981C147.256 384.275 147.731 384.413 148.208 384.369ZM149.652 383.896C148.378 384.132 147.443 384.085 147.122 383.745C147.052 383.668 147.004 383.572 146.984 383.469C146.964 383.365 146.973 383.259 147.009 383.16C147.016 383.107 147.037 383.057 147.071 383.016C147.104 382.974 147.148 382.943 147.198 382.924C147.698 382.754 148.878 383.358 149.69 383.896H149.652Z" fill="#407BFF"/>
<path d="M150.096 384.142H150.172C150.196 384.128 150.217 384.109 150.233 384.086C150.249 384.063 150.26 384.037 150.266 384.01C150.266 383.915 150.455 381.886 149.747 381.178C149.656 381.088 149.545 381.021 149.424 380.98C149.303 380.939 149.175 380.926 149.048 380.942C148.908 380.946 148.772 380.996 148.663 381.085C148.554 381.174 148.477 381.296 148.444 381.433C148.274 382.207 149.312 383.698 150.011 384.132C150.038 384.144 150.067 384.148 150.096 384.142ZM149.152 381.263C149.286 381.261 149.414 381.312 149.511 381.404C149.888 382.096 150.04 382.888 149.945 383.67C149.331 383.141 148.642 382.008 148.756 381.499C148.756 381.404 148.831 381.291 149.076 381.263H149.152Z" fill="#407BFF"/>
<path d="M151.984 163.812C151.361 165.493 150.766 166.956 150.096 168.485C149.426 170.014 148.756 171.487 148.048 172.979C146.613 175.943 145.074 178.869 143.328 181.729C141.606 184.66 139.692 187.473 137.597 190.15C135.413 193.043 132.876 195.653 130.045 197.919L129.743 198.155C129.429 198.399 129.079 198.593 128.705 198.731C127.372 199.233 125.984 199.575 124.57 199.75C123.202 199.892 121.823 199.892 120.454 199.75C117.955 199.442 115.528 198.705 113.28 197.57C111.252 196.536 109.351 195.268 107.616 193.794C106.776 193.076 105.983 192.321 105.218 191.538C104.439 190.732 103.708 189.88 103.028 188.989C102.587 188.42 102.358 187.716 102.38 186.997C102.402 186.278 102.674 185.589 103.148 185.048C103.623 184.508 104.271 184.15 104.981 184.035C105.692 183.92 106.419 184.056 107.04 184.42L107.38 184.618C108.031 185.005 108.881 185.515 109.646 185.93C110.41 186.346 111.232 186.761 112.024 187.139C113.54 187.865 115.12 188.446 116.744 188.876C118.133 189.256 119.573 189.415 121.011 189.348C122.162 189.277 123.284 188.955 124.296 188.404L122.956 189.225C124.899 187.365 126.637 185.301 128.139 183.07C128.95 181.899 129.734 180.685 130.489 179.426C131.254 178.18 132 176.906 132.708 175.593C134.133 172.988 135.483 170.298 136.776 167.569C137.428 166.21 138.06 164.832 138.664 163.454C139.268 162.075 139.891 160.622 140.411 159.376L140.458 159.272C141.157 157.888 142.348 156.816 143.796 156.264C145.245 155.713 146.847 155.722 148.29 156.29C149.732 156.859 150.91 157.945 151.593 159.336C152.277 160.727 152.416 162.324 151.984 163.812Z" fill="#407BFF"/>
<path opacity="0.3" d="M136.776 182.475C136.501 185.37 136.501 188.284 136.776 191.179L137.588 190.15C139.684 187.476 141.595 184.663 143.309 181.729C144.026 180.54 144.715 179.332 145.367 178.123C145.706 176.849 146.008 175.584 146.311 174.3L146.565 173.045C143.252 171.874 137.758 174.017 136.776 182.475Z" fill="black"/>
<path d="M104.218 183.457L98.6197 181.248L97.789 189.357C99.7671 189.869 101.791 190.185 103.831 190.301C104.309 190.334 104.789 190.253 105.23 190.064C105.671 189.876 106.061 189.585 106.368 189.217C106.675 188.848 106.89 188.412 106.995 187.944C107.1 187.476 107.093 186.99 106.974 186.525C106.792 185.831 106.446 185.191 105.967 184.658C105.488 184.124 104.888 183.712 104.218 183.457Z" fill="#FF8B7B"/>
<path d="M93.0595 182.806L94.7021 189.461L97.789 189.348L98.6197 181.239L93.0595 182.806Z" fill="#FF8B7B"/>
<path d="M206.642 376.92L199.713 378.44L195.276 362.59L202.205 361.071L206.642 376.92Z" fill="#FF8B7B"/>
<path d="M199.184 376.845L206.651 374.069C206.712 374.043 206.778 374.03 206.845 374.029C206.911 374.029 206.977 374.042 207.039 374.067C207.101 374.093 207.156 374.13 207.203 374.178C207.25 374.225 207.287 374.281 207.312 374.343L209.88 380.12C209.996 380.431 209.985 380.775 209.849 381.077C209.713 381.38 209.462 381.616 209.153 381.735C206.538 382.679 205.235 382.962 201.95 384.189C199.93 384.935 194.398 387.219 191.641 388.258C188.885 389.296 187.865 386.502 188.998 385.813C193.888 382.716 196.862 379.856 198.193 377.685C198.42 377.302 198.769 377.006 199.184 376.845Z" fill="#263238"/>
<path opacity="0.2" d="M202.214 361.071L195.276 362.6L197.57 370.765L204.499 369.236L202.214 361.071Z" fill="black"/>
<path d="M158.111 217.205C158.111 217.205 165.351 263.905 168.882 283.936C172.752 305.884 194.152 369.425 194.152 369.425L206.849 366.593C206.849 366.593 191.745 305.403 189.933 283.436C187.969 259.6 182.107 215.015 182.107 215.015L158.111 217.205Z" fill="#263238"/>
<path d="M208.105 366.319L192.633 369.727L190.811 365.083L207.869 362.109L208.105 366.319Z" fill="#263238"/>
<path d="M197.296 378.884C197.888 378.649 198.452 378.348 198.976 377.987C199.003 377.969 199.023 377.944 199.036 377.914C199.048 377.885 199.052 377.853 199.047 377.821C199.042 377.79 199.029 377.76 199.008 377.736C198.987 377.712 198.96 377.694 198.929 377.685C198.665 377.619 196.295 377.034 195.606 377.685C195.528 377.755 195.469 377.844 195.434 377.943C195.4 378.042 195.391 378.148 195.408 378.251C195.419 378.413 195.472 378.57 195.561 378.705C195.651 378.841 195.773 378.951 195.918 379.025C196.379 379.149 196.87 379.099 197.296 378.884ZM198.467 377.94C197.362 378.62 196.475 378.884 196.05 378.714C195.958 378.664 195.88 378.591 195.826 378.501C195.771 378.411 195.741 378.309 195.738 378.204C195.726 378.154 195.728 378.101 195.742 378.051C195.757 378.001 195.785 377.956 195.823 377.921C196.163 377.6 197.475 377.713 198.429 377.921L198.467 377.94Z" fill="#407BFF"/>
<path d="M198.91 378.006C198.933 377.995 198.953 377.979 198.967 377.959C198.98 377.936 198.987 377.91 198.987 377.883C198.987 377.857 198.98 377.831 198.967 377.808C198.967 377.723 198.382 375.75 197.475 375.353C197.361 375.297 197.235 375.268 197.107 375.268C196.98 375.268 196.854 375.297 196.739 375.353C196.608 375.407 196.498 375.503 196.428 375.626C196.358 375.749 196.331 375.893 196.352 376.033C196.465 376.816 197.976 377.836 198.778 377.987L198.91 378.006ZM197.022 375.646C197.084 375.62 197.149 375.607 197.216 375.607C197.282 375.607 197.348 375.62 197.409 375.646C197.947 375.882 198.41 376.958 198.627 377.6C197.872 377.326 196.815 376.514 196.739 376.005C196.739 375.901 196.739 375.778 196.956 375.665L197.022 375.646Z" fill="#407BFF"/>
<path d="M142.129 160.763C142.387 159.546 142.968 158.422 143.812 157.508C144.656 156.594 145.731 155.925 146.924 155.571C148.628 154.993 150.369 154.533 152.135 154.193C157.452 153.403 162.81 152.921 168.183 152.749C171.015 152.626 173.847 152.749 176.198 152.843H176.283C176.886 152.876 177.477 153.03 178.02 153.297C178.563 153.563 179.046 153.936 179.442 154.393C179.837 154.85 180.137 155.382 180.322 155.958C180.508 156.533 180.575 157.14 180.521 157.742C179.58 167.363 179.265 177.034 179.577 186.695C180.276 200.732 182.013 211.645 182.05 215.015L144.29 218.404C138.947 184.524 140.524 168.74 142.129 160.763Z" fill="white"/>
<path d="M140.203 161.103C140.493 159.749 141.129 158.493 142.049 157.457C142.969 156.422 144.141 155.642 145.452 155.194C147.94 154.569 150.461 154.08 153.004 153.73C150.964 164.265 147.972 195.701 151.54 219.244C151.568 219.423 151.559 219.605 151.513 219.78C151.468 219.956 151.387 220.119 151.275 220.262C151.164 220.404 151.024 220.522 150.865 220.609C150.706 220.695 150.531 220.748 150.351 220.764L143.403 221.387C142.936 221.431 142.47 221.293 142.101 221.004C141.732 220.714 141.489 220.293 141.421 219.829C136.144 185.402 138.57 167.749 140.203 161.103Z" fill="#407BFF"/>
<path d="M152.928 154.061C157.497 152.541 158.054 149.577 157.459 146.433C157.316 145.644 157.121 144.865 156.874 144.102L162.292 138.711L166.267 134.765C165.54 140.042 165.049 149.596 168.853 152.701C165.972 156.111 162.254 158.714 158.063 160.253C151.984 157.157 152.928 154.061 152.928 154.061Z" fill="#FF8B7B"/>
<path opacity="0.2" d="M156.836 144.102C157.083 144.865 157.279 145.644 157.421 146.433C159.564 145.791 162.274 143.205 162.377 140.949C162.415 140.201 162.374 139.451 162.255 138.711L156.836 144.102Z" fill="black"/>
<path d="M155.911 125.599C155.911 128.941 154.42 131.66 152.541 131.66C150.662 131.66 149.143 128.969 149.133 125.628C149.124 122.286 150.625 119.576 152.503 119.567C154.382 119.558 155.902 122.257 155.911 125.599Z" fill="#263238"/>
<path d="M169.693 127.903C168.372 134.841 167.956 138.957 163.963 142.214C162.677 143.283 161.124 143.981 159.47 144.233C157.816 144.484 156.125 144.279 154.58 143.64C153.034 143 151.692 141.951 150.699 140.605C149.706 139.259 149.099 137.668 148.944 136.002C148.246 129.592 150.511 119.322 157.724 117.179C159.271 116.675 160.924 116.587 162.516 116.922C164.109 117.258 165.585 118.007 166.797 119.093C168.01 120.179 168.915 121.564 169.423 123.11C169.932 124.657 170.025 126.309 169.693 127.903Z" fill="#FF8B7B"/>
<path d="M155.26 121.483C157.733 123.286 164.133 123.947 166.937 123.201C165.993 123.843 165.88 125.816 166.71 128.752C165.755 130.037 165.015 131.468 164.52 132.991L169.873 132.047C169.873 132.047 183.759 122.786 173.526 118.831C174.253 111.043 158.28 110.514 152.522 115.564C147.264 120.124 150.936 122.947 155.26 121.483Z" fill="#263238"/>
<path d="M173.007 119.567C173.007 119.567 174.753 117.547 173.951 113.903C176.075 116.386 175.499 118.434 173.007 119.567Z" fill="#263238"/>
<path d="M170.864 133.444C170.082 134.762 168.863 135.764 167.418 136.276C165.587 136.88 164.907 135.2 165.606 133.378C166.238 131.735 167.956 129.441 169.703 129.602C171.449 129.762 171.902 131.801 170.864 133.444Z" fill="#FF8B7B"/>
<path d="M158.658 128.988C158.592 129.555 158.233 129.989 157.856 129.932C157.478 129.875 157.242 129.413 157.318 128.847C157.393 128.28 157.742 127.846 158.12 127.903C158.498 127.959 158.734 128.384 158.658 128.988Z" fill="#263238"/>
<path d="M152.22 128.384C152.144 128.95 151.786 129.385 151.418 129.328C151.049 129.271 150.804 128.799 150.87 128.233C150.936 127.667 151.304 127.232 151.682 127.289C152.06 127.346 152.296 127.827 152.22 128.384Z" fill="#263238"/>
<path d="M154.401 128.752C153.496 130.429 152.372 131.979 151.059 133.359C151.42 133.673 151.845 133.904 152.305 134.036C152.765 134.168 153.248 134.198 153.721 134.124L154.401 128.752Z" fill="#FF5652"/>
<path d="M155.845 135.87C156.51 135.858 157.165 135.713 157.773 135.444C158.381 135.175 158.929 134.787 159.385 134.303C159.416 134.271 159.433 134.229 159.433 134.185C159.433 134.141 159.416 134.099 159.385 134.067C159.37 134.051 159.352 134.038 159.331 134.029C159.311 134.02 159.289 134.015 159.267 134.015C159.245 134.015 159.223 134.02 159.203 134.029C159.182 134.038 159.164 134.051 159.149 134.067C158.65 134.587 158.038 134.986 157.36 135.233C156.683 135.48 155.958 135.569 155.241 135.492C155.204 135.501 155.171 135.522 155.147 135.552C155.123 135.582 155.111 135.619 155.111 135.657C155.111 135.696 155.123 135.733 155.147 135.763C155.171 135.793 155.204 135.814 155.241 135.823L155.845 135.87Z" fill="#263238"/>
<path d="M161.887 126.968C161.943 126.964 161.998 126.948 162.047 126.921C162.123 126.874 162.177 126.799 162.198 126.713C162.219 126.626 162.206 126.535 162.16 126.458C161.902 125.996 161.533 125.605 161.086 125.32C160.64 125.035 160.13 124.865 159.602 124.825C159.523 124.838 159.451 124.879 159.399 124.941C159.347 125.002 159.319 125.08 159.319 125.16C159.319 125.241 159.347 125.318 159.399 125.38C159.451 125.441 159.523 125.482 159.602 125.495C160.014 125.536 160.411 125.676 160.757 125.903C161.104 126.13 161.391 126.437 161.594 126.798C161.624 126.849 161.666 126.892 161.718 126.922C161.769 126.952 161.827 126.968 161.887 126.968Z" fill="#263238"/>
<path d="M149.7 126.015C149.755 126.011 149.808 125.995 149.856 125.967C149.903 125.939 149.944 125.901 149.973 125.854C150.197 125.487 150.5 125.176 150.862 124.943C151.223 124.711 151.633 124.564 152.06 124.514C152.103 124.514 152.147 124.505 152.187 124.487C152.227 124.47 152.263 124.445 152.293 124.413C152.323 124.381 152.347 124.344 152.362 124.302C152.377 124.261 152.383 124.217 152.38 124.174C152.378 124.085 152.341 124.001 152.278 123.94C152.214 123.878 152.129 123.843 152.041 123.843C151.503 123.895 150.986 124.072 150.529 124.358C150.071 124.645 149.687 125.034 149.407 125.495C149.36 125.57 149.343 125.659 149.361 125.746C149.378 125.832 149.429 125.908 149.501 125.958C149.561 125.994 149.63 126.013 149.7 126.015Z" fill="#263238"/>
<path d="M180.719 187.913C180.379 177.723 180.694 167.523 181.663 157.374C181.717 156.738 181.643 156.098 181.446 155.491C181.248 154.884 180.931 154.323 180.513 153.841C180.095 153.359 179.585 152.965 179.012 152.684C178.44 152.402 177.816 152.238 177.179 152.201H177.094C174.659 152.069 171.619 151.975 168.598 152.097C164.907 169.967 165.332 193.02 167.192 217.885C167.205 218.062 167.253 218.234 167.333 218.393C167.414 218.551 167.525 218.692 167.66 218.807C167.795 218.922 167.952 219.009 168.121 219.063C168.29 219.117 168.469 219.137 168.646 219.121L181.503 217.96C181.986 217.919 182.433 217.689 182.746 217.319C183.059 216.949 183.213 216.47 183.174 215.987C182.843 211.135 181.371 200.77 180.719 187.913Z" fill="#407BFF"/>
<path opacity="0.3" d="M177.623 157.157C175.527 158.318 173.724 162.821 176.339 168.551C177.416 170.963 178.862 173.193 180.625 175.159C180.691 172.563 180.804 170.033 180.946 167.664C179.605 163.671 178.492 160.036 177.623 157.157Z" fill="black"/>
<path d="M180.918 153.929L181.862 154.655L182.721 155.326C183.278 155.779 183.816 156.27 184.354 156.723C185.417 157.654 186.459 158.62 187.478 159.621C189.529 161.625 191.44 163.766 193.199 166.031C195.031 168.352 196.652 170.832 198.042 173.441C199.546 176.19 200.667 179.131 201.374 182.183C201.577 183.044 201.725 183.917 201.818 184.797L201.912 186.147V187.45C201.842 189.09 201.624 190.72 201.261 192.321C200.574 195.229 199.554 198.049 198.221 200.723C196.964 203.247 195.525 205.676 193.916 207.992C192.344 210.292 190.605 212.476 188.715 214.524C188.204 215.061 187.518 215.397 186.78 215.472C186.043 215.547 185.303 215.356 184.694 214.933C184.085 214.51 183.648 213.883 183.461 213.166C183.274 212.449 183.349 211.688 183.674 211.022L183.74 210.88C186.024 206.481 187.946 201.903 189.489 197.192C190.915 192.652 191.594 188.026 190.433 185.062C190.111 184.09 189.717 183.143 189.253 182.23C188.782 181.257 188.255 180.311 187.677 179.398C186.448 177.458 185.082 175.61 183.589 173.866C182.069 172.072 180.417 170.335 178.69 168.655C177.831 167.815 176.953 166.994 176.047 166.201L174.697 165.021L174.026 164.454L173.432 163.963L173.177 163.756C171.954 162.71 171.184 161.232 171.028 159.631C170.872 158.03 171.343 156.43 172.34 155.169C173.338 153.907 174.786 153.081 176.38 152.864C177.974 152.646 179.59 153.055 180.889 154.004L180.918 153.929Z" fill="#407BFF"/>
<path d="M181.767 211.39L177.935 212.334L184.543 218.347C184.543 218.347 190.424 215.704 188.809 212.787L187.696 212.164C185.888 211.168 183.77 210.891 181.767 211.39Z" fill="#FF8B7B"/>
<path d="M174.81 216.157L179.379 219.414L184.552 218.357L177.935 212.343L174.81 216.157Z" fill="#FF8B7B"/>
<path d="M149.397 106.021C136.115 114.026 120.502 103.283 107.22 111.288C106.043 101.848 104.86 92.3767 103.67 82.8738C116.952 74.8686 132.575 85.6114 145.848 77.6062C147.031 87.084 148.214 96.5555 149.397 106.021Z" fill="#407BFF"/>
<path opacity="0.3" d="M103.68 82.8737L106.512 105.936C115.631 106.37 125.004 108.843 133.434 103.774L130.593 80.712C121.474 80.24 112.1 77.795 103.68 82.8737Z" fill="black"/>
<path d="M114.073 73.7925C111.449 73.7925 108.824 73.547 106.04 73.2827C103.255 73.0184 100.376 72.7446 97.5435 72.7446V71.8006C100.432 71.8006 103.311 72.0744 106.096 72.3387C108.881 72.603 111.477 72.8485 114.054 72.8485L114.073 73.7925Z" fill="#407BFF"/>
<path d="M119.359 73.3488L119.189 72.4048C121.311 72.0232 123.345 71.2587 125.193 70.1486L125.684 70.9605C123.739 72.1357 121.596 72.9452 119.359 73.3488Z" fill="#407BFF"/>
<path d="M130.451 101.414C117.179 109.419 101.556 98.6763 88.2734 106.681L84.7334 78.267C98.0061 70.2619 113.629 81.0046 126.902 72.9995C128.085 82.471 129.268 91.9424 130.451 101.414Z" fill="#407BFF"/>
<path d="M117.509 342.445C117.061 342.491 116.613 342.359 116.26 342.079C115.907 341.799 115.678 341.391 115.621 340.944L82.6 76.785C82.557 76.3371 82.6894 75.8901 82.9694 75.538C83.2493 75.1858 83.655 74.956 84.101 74.897C84.5492 74.8589 84.995 74.9944 85.3463 75.2754C85.6977 75.5565 85.9277 75.9617 85.989 76.4074L118.972 340.557C119.014 340.999 118.886 341.44 118.614 341.791C118.342 342.141 117.947 342.375 117.509 342.445Z" fill="#407BFF"/>
</svg>
