<svg width="15" height="15" viewBox="0 0 15 15" fill="none" xmlns="http://www.w3.org/2000/svg">
<path d="M12.4805 14.5307H2.51953C1.77645 14.5307 1.17188 13.9262 1.17188 13.1831V6.09265C1.17188 5.83378 1.38173 5.6239 1.64062 5.6239C1.89952 5.6239 2.10938 5.83378 2.10938 6.09265V13.1831C2.10938 13.4092 2.29336 13.5932 2.51953 13.5932H12.4805C12.7066 13.5932 12.8906 13.4092 12.8906 13.1831V6.09265C12.8906 5.83378 13.1005 5.6239 13.3594 5.6239C13.6183 5.6239 13.8281 5.83378 13.8281 6.09265V13.1831C13.8281 13.9262 13.2236 14.5307 12.4805 14.5307Z" fill="white"/>
<path d="M14.5312 7.73314C14.4113 7.73314 14.2913 7.68738 14.1998 7.59583L8.37005 1.76612C7.89031 1.28636 7.1097 1.28636 6.62993 1.76612L0.800207 7.59586C0.617161 7.77893 0.320354 7.77893 0.137307 7.59586C-0.045769 7.41281 -0.045769 7.116 0.137307 6.93295L5.96703 1.10319C6.81231 0.25792 8.18771 0.25792 9.03295 1.10319L14.8627 6.93292C15.0458 7.116 15.0458 7.41278 14.8627 7.59583C14.7712 7.68738 14.6512 7.73314 14.5312 7.73314Z" fill="white"/>
<path d="M9.37498 14.5307H5.62498C5.36609 14.5307 5.15623 14.3209 5.15623 14.062V9.90184C5.15623 9.09413 5.81336 8.437 6.62108 8.437H8.37889C9.18661 8.437 9.84373 9.09413 9.84373 9.90184V14.062C9.84373 14.3209 9.63388 14.5307 9.37498 14.5307ZM6.09373 13.5932H8.90623V9.90184C8.90623 9.61107 8.66966 9.3745 8.37889 9.3745H6.62108C6.33031 9.3745 6.09373 9.61107 6.09373 9.90184V13.5932Z" fill="white"/>
</svg>
