<svg width="15" height="15" viewBox="0 0 15 15" fill="none" xmlns="http://www.w3.org/2000/svg">
<g clip-path="url(#clip0)">
<path d="M10.6055 11.4844V12.6562C10.6055 13.9486 9.5541 15 8.26172 15H2.37305C1.08067 15 0.0292969 13.9486 0.0292969 12.6562V2.34375C0.0292969 1.05137 1.08067 0 2.37305 0H8.26172C9.5541 0 10.6055 1.05137 10.6055 2.34375V3.51562C10.6055 3.83926 10.3432 4.10156 10.0195 4.10156C9.69589 4.10156 9.43359 3.83926 9.43359 3.51562V2.34375C9.43359 1.69762 8.90785 1.17188 8.26172 1.17188H2.37305C1.72691 1.17188 1.20117 1.69762 1.20117 2.34375V12.6562C1.20117 13.3024 1.72691 13.8281 2.37305 13.8281H8.26172C8.90785 13.8281 9.43359 13.3024 9.43359 12.6562V11.4844C9.43359 11.1607 9.69589 10.8984 10.0195 10.8984C10.3432 10.8984 10.6055 11.1607 10.6055 11.4844ZM14.6003 6.49349L13.2882 5.18143C13.0593 4.95255 12.6883 4.95255 12.4595 5.18143C12.2306 5.41019 12.2306 5.78121 12.4595 6.00998L13.3928 6.94336H6.35742C6.03378 6.94336 5.77148 7.20566 5.77148 7.5293C5.77148 7.85294 6.03378 8.11523 6.35742 8.11523H13.3928L12.4595 9.04861C12.2306 9.27738 12.2306 9.6484 12.4595 9.87717C12.574 9.99161 12.7239 10.0488 12.8738 10.0488C13.0238 10.0488 13.1738 9.99161 13.2882 9.87717L14.6003 8.5651C15.1714 7.99393 15.1714 7.06467 14.6003 6.49349Z" fill="white"/>
</g>
<defs>
<clipPath id="clip0">
<rect width="15" height="15" fill="white"/>
</clipPath>
</defs>
</svg>
